<?xml version="1.0" encoding="utf-8"?>
<svg xmlns="http://www.w3.org/2000/svg">
  <defs>
	
	<symbol id="arrow" viewBox="0 0 16 16">
		<path d="M4 6L8 10L12 6" stroke-width="2" stroke-linecap="round" stroke-linejoin="round"/>
	</symbol>

	<symbol id="bell" viewBox="0 0 32 32">
	  	<path d="M23,20.8v.8H9v-.8l1.24-1.2,.41-.4v-4.4c0-2.46,1.76-4.51,4.12-5.06v-.54c0-.66,.55-1.2,1.23-1.2s1.24,.54,1.24,1.2v.54c2.36,.55,4.12,2.6,4.12,5.06v4.4h-2v-4.4c0-1.46-1.05-2.76-2.57-3.11l-.79-.18-.78,.18c-1.52,.35-2.57,1.65-2.57,3.11v4.8h8.32l.39-.4,.41,.4,1.23,1.2Z"/>
	  	<path d="M17.65,22.4c0,.88-.74,1.6-1.65,1.6s-1.64-.72-1.64-1.6h3.29Z"/>
	</symbol>

	<symbol id="gift" viewBox="0 0 32 32">
  		<path d="M22,11.71h-.08c.08-.48,.04-.98-.13-1.46-.07-.19-.16-.37-.27-.54-.73-1.19-2.26-1.74-3.65-1.23-.62,.23-1.26,.67-1.77,1.23-.03,.03-.07,.07-.1,.11-.03-.04-.07-.08-.1-.11-.51-.56-1.15-1-1.77-1.23-1.39-.51-2.92,.04-3.65,1.23-.11,.17-.2,.35-.27,.54-.17,.47-.22,.97-.14,1.46h-.07c-1.1,0-2,.9-2,2v3c0,.55,.45,1,1,1v3c0,1.65,1.35,3,3,3h8c1.65,0,3-1.35,3-3v-3c.55,0,1-.45,1-1v-3c0-1.1-.9-2-2-2Zm-4.58-.47c.3-.39,.76-.74,1.13-.88,.13-.05,.26-.07,.4-.07,.42,0,.82,.24,.96,.64,.04,.1,.06,.21,.06,.32,0,.16-.04,.31-.12,.46h-2.71c.05-.12,.13-.28,.28-.47Zm-5.33-.31c.14-.4,.54-.64,.96-.64,.14,0,.27,.02,.4,.07,.37,.14,.83,.49,1.13,.88,.15,.19,.23,.35,.28,.47h-2.71s-.01-.01-.01-.02c-.12-.25-.14-.51-.05-.76Zm-2.09,2.78h5.93s.05-.03,.07-.05c.02,.02,.05,.04,.07,.05h5.93v2H10v-2Zm1,7v-3h4v4h-3c-.55,0-1-.45-1-1Zm10,0c0,.55-.45,1-1,1h-3v-4h4v3Z"/>
	</symbol>

	<symbol id="medium" viewBox="0 0 32 32">
	  	<path d="M9.9,12.15c.02-.2-.06-.4-.2-.54l-1.49-1.84v-.28h4.64l3.59,8.05,3.15-8.05h4.42v.28l-1.28,1.25c-.11,.09-.16,.23-.14,.37v9.21c-.02,.14,.03,.28,.14,.37l1.25,1.25v.28h-6.27v-.28l1.29-1.28c.13-.13,.13-.17,.13-.37v-7.44l-3.59,9.34h-.49l-4.18-9.34v6.26c-.03,.26,.05,.53,.23,.72l1.68,2.09v.28h-4.77v-.28l1.68-2.09c.18-.19,.26-.46,.22-.72v-7.24Z"/>
	</symbol>

	<symbol id="plus" viewBox="0 0 20 20">
	  	<path d="M10.91,0h-1.82V9.09H0v1.82H9.09v9.09h1.82V10.91h9.09v-1.82H10.91V0Z"/>
	</symbol>

	<symbol id="dots" viewBox="0 0 16 16">
	  	<path d="M10,2c0,1.1-.9,2-2,2s-2-.9-2-2,.9-2,2-2,2,.9,2,2Zm0,6c0,1.1-.9,2-2,2s-2-.9-2-2,.9-2,2-2,2,.9,2,2Zm-2,8c1.1,0,2-.9,2-2s-.9-2-2-2-2,.9-2,2,.9,2,2,2Z"/>
	</symbol>

	<symbol id="edit" viewBox="0 0 16 16">
  		<path fill-rule="evenodd" d="M8.63,1.74c.78-.78,2.05-.78,2.83,0l2.83,2.83c.78,.78,.78,2.05,0,2.83l-6.95,6.95c-.08,.08-.19,.13-.31,.14l-3.72,.35c-1.26,.12-2.31-.95-2.18-2.21l.4-3.64c.01-.11,.06-.22,.14-.3L8.63,1.74Zm.71,2.12c.39-.39,1.02-.39,1.41,0l1.41,1.41c.39,.39,.39,1.02,0,1.41l-.71,.71-2.83-2.83,.71-.71Zm-2.12,2.12l-3.54,3.54-.41,2.07c-.14,.7,.48,1.32,1.18,1.18l2.07-.41,3.54-3.54-2.83-2.83Z"/>
	</symbol>

	<symbol id="report" viewBox="0 0 16 16">
		<path d="M3.18,14.34c-1.31,0-2.38-1.07-2.38-2.38V2.43C.79,1.11,1.86,.04,3.18,.04h7.95c1.31,0,2.38,1.07,2.38,2.38v.79h-1.59v-.79c0-.44-.36-.79-.79-.79H3.18c-.44,0-.79,.36-.79,.79V11.96c0,.44,.36,.79,.79,.79v1.59Z"/>
		<path d="M4.77,3.22h4.77c.44,0,.79,.36,.79,.79h0c0,.44-.36,.79-.79,.79H4.77c-.44,0-.79-.36-.79-.79h0c0-.44,.36-.79,.79-.79Z"/>
		<path fill-rule="evenodd" d="M3.97,7.19c0-.44,.36-.79,.79-.79h3.18l-1.59,1.59h-1.59c-.44,0-.79-.36-.79-.79Z"/>
		<path fill-rule="evenodd" d="M11.04,5.55c.62-.62,1.63-.62,2.25,0l2.25,2.25c.62,.62,.62,1.63,0,2.25l-5.52,5.52c-.07,.07-.15,.11-.24,.11l-2.95,.28c-1,.09-1.84-.75-1.73-1.75l.31-2.89c0-.09,.05-.17,.11-.24l5.52-5.52Zm.56,1.69c.31-.31,.81-.31,1.12,0l1.12,1.12c.31,.31,.31,.81,0,1.12l-.56,.56-2.25-2.25,.56-.56Zm-1.69,1.69l-2.81,2.81-.33,1.64c-.11,.56,.38,1.05,.94,.94l1.64-.33,2.81-2.81-2.25-2.25Z"/>
	</symbol>
	
	<symbol id="play" viewBox="0 0 16 16">
	  	<path d="M13.5,8c-.01,.71-.35,1.38-.93,1.81l-6.11,4.69c-.73,.55-1.73,.66-2.57,.27-.84-.38-1.38-1.2-1.39-2.09V3.32c.01-.89,.55-1.71,1.39-2.09,.84-.39,1.84-.28,2.57,.27l6.11,4.69c.58,.43,.92,1.1,.93,1.81Z"/>
	</symbol>

	<symbol id="heart" viewBox="0 0 16 16">
	  <path d="M16,6c0,.12-.01,.25-.02,.38-.01,.12-.02,.25-.04,.38-.06,.38-.16,.77-.29,1.17-.02,.05-.04,.1-.06,.15-1.28,3.46-5.29,6.92-7.59,6.92S1.69,11.54,.41,8.08c-.02-.05-.04-.1-.06-.15-.13-.4-.23-.79-.29-1.17-.02-.13-.03-.26-.04-.38-.01-.13-.02-.26-.02-.38C0,3.24,2.01,1,4.48,1c1.43,0,2.7,.75,3.52,1.91,.82-1.16,2.09-1.91,3.52-1.91,2.47,0,4.48,2.24,4.48,5Z"/>
	</symbol>

	<symbol id="block" viewBox="0 0 16 16">
	  <polygon points="9.41 8 11.71 10.29 10.29 11.71 8 9.41 5.71 11.71 4.29 10.29 6.59 8 4.29 5.71 5.71 4.29 8 6.59 10.29 4.29 11.71 5.71 9.41 8"/>
	  <path d="M13.66,2.34c-1.56-1.56-3.61-2.34-5.66-2.34S3.9,.78,2.34,2.34,0,5.95,0,8s.78,4.1,2.34,5.66,3.61,2.34,5.66,2.34,4.1-.78,5.66-2.34,2.34-3.61,2.34-5.66-.78-4.1-2.34-5.66Zm-1.42,9.9c-2.34,2.34-6.14,2.34-8.48,0S1.42,6.1,3.76,3.76c1.17-1.17,2.7-1.76,4.24-1.76s3.07,.59,4.24,1.76c2.34,2.34,2.34,6.14,0,8.48Z"/>
	</symbol>

  </defs>
</svg>