<?xml version="1.0" encoding="utf-8"?>
<svg xmlns="http://www.w3.org/2000/svg">
  <defs>
	
	<symbol id="arrow" viewBox="0 0 16 16">
		<path d="M4 6L8 10L12 6" stroke-width="2" stroke-linecap="round" stroke-linejoin="round"/>
	</symbol>

	<symbol id="bell" viewBox="0 0 32 32">
	  	<path d="M23,20.8v.8H9v-.8l1.24-1.2,.41-.4v-4.4c0-2.46,1.76-4.51,4.12-5.06v-.54c0-.66,.55-1.2,1.23-1.2s1.24,.54,1.24,1.2v.54c2.36,.55,4.12,2.6,4.12,5.06v4.4h-2v-4.4c0-1.46-1.05-2.76-2.57-3.11l-.79-.18-.78,.18c-1.52,.35-2.57,1.65-2.57,3.11v4.8h8.32l.39-.4,.41,.4,1.23,1.2Z"/>
	  	<path d="M17.65,22.4c0,.88-.74,1.6-1.65,1.6s-1.64-.72-1.64-1.6h3.29Z"/>
	</symbol>

	<symbol id="gift" viewBox="0 0 32 32">
  		<path d="M22,11.71h-.08c.08-.48,.04-.98-.13-1.46-.07-.19-.16-.37-.27-.54-.73-1.19-2.26-1.74-3.65-1.23-.62,.23-1.26,.67-1.77,1.23-.03,.03-.07,.07-.1,.11-.03-.04-.07-.08-.1-.11-.51-.56-1.15-1-1.77-1.23-1.39-.51-2.92,.04-3.65,1.23-.11,.17-.2,.35-.27,.54-.17,.47-.22,.97-.14,1.46h-.07c-1.1,0-2,.9-2,2v3c0,.55,.45,1,1,1v3c0,1.65,1.35,3,3,3h8c1.65,0,3-1.35,3-3v-3c.55,0,1-.45,1-1v-3c0-1.1-.9-2-2-2Zm-4.58-.47c.3-.39,.76-.74,1.13-.88,.13-.05,.26-.07,.4-.07,.42,0,.82,.24,.96,.64,.04,.1,.06,.21,.06,.32,0,.16-.04,.31-.12,.46h-2.71c.05-.12,.13-.28,.28-.47Zm-5.33-.31c.14-.4,.54-.64,.96-.64,.14,0,.27,.02,.4,.07,.37,.14,.83,.49,1.13,.88,.15,.19,.23,.35,.28,.47h-2.71s-.01-.01-.01-.02c-.12-.25-.14-.51-.05-.76Zm-2.09,2.78h5.93s.05-.03,.07-.05c.02,.02,.05,.04,.07,.05h5.93v2H10v-2Zm1,7v-3h4v4h-3c-.55,0-1-.45-1-1Zm10,0c0,.55-.45,1-1,1h-3v-4h4v3Z"/>
	</symbol>

	<symbol id="medium" viewBox="0 0 32 32">
	  	<path d="M9.9,12.15c.02-.2-.06-.4-.2-.54l-1.49-1.84v-.28h4.64l3.59,8.05,3.15-8.05h4.42v.28l-1.28,1.25c-.11,.09-.16,.23-.14,.37v9.21c-.02,.14,.03,.28,.14,.37l1.25,1.25v.28h-6.27v-.28l1.29-1.28c.13-.13,.13-.17,.13-.37v-7.44l-3.59,9.34h-.49l-4.18-9.34v6.26c-.03,.26,.05,.53,.23,.72l1.68,2.09v.28h-4.77v-.28l1.68-2.09c.18-.19,.26-.46,.22-.72v-7.24Z"/>
	</symbol>

	<symbol id="plus" viewBox="0 0 20 20">
	  <path d="M10.91,0h-1.82V9.09H0v1.82H9.09v9.09h1.82V10.91h9.09v-1.82H10.91V0Z"/>
	</symbol>



  </defs>
</svg>