<?xml version="1.0" encoding="utf-8"?>
<svg xmlns="http://www.w3.org/2000/svg">
  <defs>

	<!-- Arrows -->
	<symbol id="arrow-right" viewBox="0 0 31 30">
  		<path fill-rule="evenodd" clip-rule="evenodd" d="M5 15C5 14.3787 5.50368 13.875 6.125 13.875L22.0819 13.875L15.8453 7.93593C15.3974 7.50529 15.3834 6.79312 15.8141 6.34525C16.2447 5.89738 16.9569 5.88342 17.4047 6.31406L25.6547 14.1891C25.8753 14.4012 26 14.694 26 15C26 15.306 25.8753 15.5988 25.6547 15.8109L17.4047 23.6859C16.9569 24.1166 16.2447 24.1026 15.8141 23.6547C15.3834 23.2069 15.3974 22.4947 15.8453 22.0641L22.0819 16.125L6.125 16.125C5.50368 16.125 5 15.6213 5 15Z"/>
	</symbol>

	<symbol id="message" viewBox="0 0 24 24">
		<path d="M1.5 8.6691V17.25C1.5 18.9069 2.84315 20.25 4.5 20.25H19.5C21.1569 20.25 22.5 18.9069 22.5 17.25V8.6691L13.5723 14.1631C12.6081 14.7564 11.3919 14.7564 10.4277 14.1631L1.5 8.6691Z"/>
		<path d="M22.5 6.90783V6.75C22.5 5.09315 21.1569 3.75 19.5 3.75H4.5C2.84315 3.75 1.5 5.09315 1.5 6.75V6.90783L11.2139 12.8856C11.696 13.1823 12.304 13.1823 12.7861 12.8856L22.5 6.90783Z"/>
	</symbol>

	<symbol id="phone" viewBox="0 0 24 24">
		<path fill-rule="evenodd" clip-rule="evenodd" d="M1.5 4.5C1.5 2.84315 2.84315 1.5 4.5 1.5H5.87163C6.732 1.5 7.48197 2.08556 7.69064 2.92025L8.79644 7.34343C8.97941 8.0753 8.70594 8.84555 8.10242 9.29818L6.8088 10.2684C6.67447 10.3691 6.64527 10.5167 6.683 10.6197C7.81851 13.7195 10.2805 16.1815 13.3803 17.317C13.4833 17.3547 13.6309 17.3255 13.7316 17.1912L14.7018 15.8976C15.1545 15.2941 15.9247 15.0206 16.6566 15.2036L21.0798 16.3094C21.9144 16.518 22.5 17.268 22.5 18.1284V19.5C22.5 21.1569 21.1569 22.5 19.5 22.5H17.25C8.55151 22.5 1.5 15.4485 1.5 6.75V4.5Z"/>
	</symbol>

	<symbol id="map" viewBox="0 0 24 24">
		<path fill-rule="evenodd" clip-rule="evenodd" d="M11.5397 22.351C11.57 22.3685 11.5937 22.3821 11.6105 22.3915L11.6384 22.4071C11.8613 22.5294 12.1378 22.5285 12.3608 22.4075L12.3895 22.3915C12.4063 22.3821 12.43 22.3685 12.4603 22.351C12.5207 22.316 12.607 22.265 12.7155 22.1982C12.9325 22.0646 13.2388 21.8676 13.6046 21.6091C14.3351 21.0931 15.3097 20.3274 16.2865 19.3273C18.2307 17.3368 20.25 14.3462 20.25 10.5C20.25 5.94365 16.5563 2.25 12 2.25C7.44365 2.25 3.75 5.94365 3.75 10.5C3.75 14.3462 5.76932 17.3368 7.71346 19.3273C8.69025 20.3274 9.66491 21.0931 10.3954 21.6091C10.7612 21.8676 11.0675 22.0646 11.2845 22.1982C11.393 22.265 11.4793 22.316 11.5397 22.351ZM12 13.5C13.6569 13.5 15 12.1569 15 10.5C15 8.84315 13.6569 7.5 12 7.5C10.3431 7.5 9 8.84315 9 10.5C9 12.1569 10.3431 13.5 12 13.5Z"/>
	</symbol>

	<!-- Socials -->
	<symbol id="facebook" viewBox="0 0 24 24">
		<path d="M24 12C24 5.37258 18.6274 0 12 0C5.37258 0 0 5.37258 0 12C0 17.9895 4.3882 22.954 10.125 23.8542V15.4687H7.07812V12H10.125V9.35625C10.125 6.34875 11.9166 4.6875 14.6576 4.6875C15.9701 4.6875 17.3438 4.92187 17.3438 4.92187V7.875H15.8306C14.34 7.875 13.875 8.80008 13.875 9.75V12H17.2031L16.6711 15.4687H13.875V23.8542C19.6118 22.954 24 17.9895 24 12Z"/>
	</symbol>

	<symbol id="twitter" viewBox="0 0 24 24">
    	<path d="M7.55016 21.7502C16.6045 21.7502 21.5583 14.2469 21.5583 7.74211C21.5583 7.53117 21.5536 7.31554 21.5442 7.1046C22.5079 6.40771 23.3395 5.5445 24 4.55554C23.1025 4.95484 22.1496 5.21563 21.1739 5.32898C22.2013 4.71315 22.9705 3.74572 23.3391 2.60601C22.3726 3.1788 21.3156 3.58286 20.2134 3.80085C19.4708 3.01181 18.489 2.48936 17.4197 2.3143C16.3504 2.13923 15.2532 2.32129 14.2977 2.83234C13.3423 3.34339 12.5818 4.15495 12.1338 5.14156C11.6859 6.12816 11.5754 7.23486 11.8195 8.29054C9.86249 8.19233 7.94794 7.68395 6.19998 6.79834C4.45203 5.91274 2.90969 4.66968 1.67297 3.14976C1.0444 4.23349 0.852057 5.51589 1.13503 6.73634C1.418 7.95678 2.15506 9.02369 3.19641 9.72023C2.41463 9.69541 1.64998 9.48492 0.965625 9.10617V9.1671C0.964925 10.3044 1.3581 11.4068 2.07831 12.287C2.79852 13.1672 3.80132 13.7708 4.91625 13.9952C4.19206 14.1934 3.43198 14.2222 2.69484 14.0796C3.00945 15.0577 3.62157 15.9131 4.44577 16.5266C5.26997 17.14 6.26512 17.4808 7.29234 17.5015C5.54842 18.8714 3.39417 19.6144 1.17656 19.6109C0.783287 19.6103 0.390399 19.5861 0 19.5387C2.25286 20.984 4.87353 21.7516 7.55016 21.7502Z"/>
  	</symbol>

	<symbol id="linkedin" viewBox="0 0 24 24">
  		<path d="M22.2234 0H1.77187C0.792187 0 0 0.773438 0 1.72969V22.2656C0 23.2219 0.792187 24 1.77187 24H22.2234C23.2031 24 24 23.2219 24 22.2703V1.72969C24 0.773438 23.2031 0 22.2234 0ZM7.12031 20.4516H3.55781V8.99531H7.12031V20.4516ZM5.33906 7.43438C4.19531 7.43438 3.27188 6.51094 3.27188 5.37187C3.27188 4.23281 4.19531 3.30937 5.33906 3.30937C6.47813 3.30937 7.40156 4.23281 7.40156 5.37187C7.40156 6.50625 6.47813 7.43438 5.33906 7.43438ZM20.4516 20.4516H16.8937V14.8828C16.8937 13.5562 16.8703 11.8453 15.0422 11.8453C13.1906 11.8453 12.9094 13.2937 12.9094 14.7891V20.4516H9.35625V8.99531H12.7687V10.5609H12.8156C13.2891 9.66094 14.4516 8.70938 16.1813 8.70938C19.7859 8.70938 20.4516 11.0813 20.4516 14.1656V20.4516Z"/>
	</symbol>

  </defs>
</svg>