<?xml version="1.0" encoding="utf-8"?>
<svg xmlns="http://www.w3.org/2000/svg">
  <defs>

	<!-- Arrows -->
	<symbol id="arrow-right" viewBox="0 0 31 30">
  		<path fill-rule="evenodd" clip-rule="evenodd" d="M5 15C5 14.3787 5.50368 13.875 6.125 13.875L22.0819 13.875L15.8453 7.93593C15.3974 7.50529 15.3834 6.79312 15.8141 6.34525C16.2447 5.89738 16.9569 5.88342 17.4047 6.31406L25.6547 14.1891C25.8753 14.4012 26 14.694 26 15C26 15.306 25.8753 15.5988 25.6547 15.8109L17.4047 23.6859C16.9569 24.1166 16.2447 24.1026 15.8141 23.6547C15.3834 23.2069 15.3974 22.4947 15.8453 22.0641L22.0819 16.125L6.125 16.125C5.50368 16.125 5 15.6213 5 15Z"/>
	</symbol>

	<symbol id="slider-arrow" viewBox="0 0 30 30">
		<path fill-rule="evenodd" clip-rule="evenodd" d="M7.5 15C7.5 14.3787 8.00368 13.875 8.625 13.875H18.5819L15.3453 10.9359C14.8974 10.5053 14.8834 9.79312 15.3141 9.34525C15.7447 8.89739 16.4569 8.88342 16.9047 9.31406L22.1547 14.1891C22.3753 14.4012 22.5 14.694 22.5 15C22.5 15.306 22.3753 15.5988 22.1547 15.8109L16.9047 20.6859C16.4569 21.1166 15.7447 21.1026 15.3141 20.6547C14.8834 20.2069 14.8974 19.4947 15.3453 19.0641L18.5819 16.125H8.625C8.00368 16.125 7.5 15.6213 7.5 15Z"/>
	</symbol>

	<symbol id="message" viewBox="0 0 24 24">
		<path d="M1.5 8.6691V17.25C1.5 18.9069 2.84315 20.25 4.5 20.25H19.5C21.1569 20.25 22.5 18.9069 22.5 17.25V8.6691L13.5723 14.1631C12.6081 14.7564 11.3919 14.7564 10.4277 14.1631L1.5 8.6691Z"/>
		<path d="M22.5 6.90783V6.75C22.5 5.09315 21.1569 3.75 19.5 3.75H4.5C2.84315 3.75 1.5 5.09315 1.5 6.75V6.90783L11.2139 12.8856C11.696 13.1823 12.304 13.1823 12.7861 12.8856L22.5 6.90783Z"/>
	</symbol>

	<symbol id="phone" viewBox="0 0 24 24">
		<path fill-rule="evenodd" clip-rule="evenodd" d="M1.5 4.5C1.5 2.84315 2.84315 1.5 4.5 1.5H5.87163C6.732 1.5 7.48197 2.08556 7.69064 2.92025L8.79644 7.34343C8.97941 8.0753 8.70594 8.84555 8.10242 9.29818L6.8088 10.2684C6.67447 10.3691 6.64527 10.5167 6.683 10.6197C7.81851 13.7195 10.2805 16.1815 13.3803 17.317C13.4833 17.3547 13.6309 17.3255 13.7316 17.1912L14.7018 15.8976C15.1545 15.2941 15.9247 15.0206 16.6566 15.2036L21.0798 16.3094C21.9144 16.518 22.5 17.268 22.5 18.1284V19.5C22.5 21.1569 21.1569 22.5 19.5 22.5H17.25C8.55151 22.5 1.5 15.4485 1.5 6.75V4.5Z"/>
	</symbol>

	<symbol id="map" viewBox="0 0 24 24">
		<path fill-rule="evenodd" clip-rule="evenodd" d="M11.5397 22.351C11.57 22.3685 11.5937 22.3821 11.6105 22.3915L11.6384 22.4071C11.8613 22.5294 12.1378 22.5285 12.3608 22.4075L12.3895 22.3915C12.4063 22.3821 12.43 22.3685 12.4603 22.351C12.5207 22.316 12.607 22.265 12.7155 22.1982C12.9325 22.0646 13.2388 21.8676 13.6046 21.6091C14.3351 21.0931 15.3097 20.3274 16.2865 19.3273C18.2307 17.3368 20.25 14.3462 20.25 10.5C20.25 5.94365 16.5563 2.25 12 2.25C7.44365 2.25 3.75 5.94365 3.75 10.5C3.75 14.3462 5.76932 17.3368 7.71346 19.3273C8.69025 20.3274 9.66491 21.0931 10.3954 21.6091C10.7612 21.8676 11.0675 22.0646 11.2845 22.1982C11.393 22.265 11.4793 22.316 11.5397 22.351ZM12 13.5C13.6569 13.5 15 12.1569 15 10.5C15 8.84315 13.6569 7.5 12 7.5C10.3431 7.5 9 8.84315 9 10.5C9 12.1569 10.3431 13.5 12 13.5Z"/>
	</symbol>

	<!-- Socials -->
	<symbol id="facebook" viewBox="0 0 24 24">
		<path d="M24 12C24 5.37258 18.6274 0 12 0C5.37258 0 0 5.37258 0 12C0 17.9895 4.3882 22.954 10.125 23.8542V15.4687H7.07812V12H10.125V9.35625C10.125 6.34875 11.9166 4.6875 14.6576 4.6875C15.9701 4.6875 17.3438 4.92187 17.3438 4.92187V7.875H15.8306C14.34 7.875 13.875 8.80008 13.875 9.75V12H17.2031L16.6711 15.4687H13.875V23.8542C19.6118 22.954 24 17.9895 24 12Z"/>
	</symbol>

	<symbol id="twitter" viewBox="0 0 24 24">
    	<path d="M7.55016 21.7502C16.6045 21.7502 21.5583 14.2469 21.5583 7.74211C21.5583 7.53117 21.5536 7.31554 21.5442 7.1046C22.5079 6.40771 23.3395 5.5445 24 4.55554C23.1025 4.95484 22.1496 5.21563 21.1739 5.32898C22.2013 4.71315 22.9705 3.74572 23.3391 2.60601C22.3726 3.1788 21.3156 3.58286 20.2134 3.80085C19.4708 3.01181 18.489 2.48936 17.4197 2.3143C16.3504 2.13923 15.2532 2.32129 14.2977 2.83234C13.3423 3.34339 12.5818 4.15495 12.1338 5.14156C11.6859 6.12816 11.5754 7.23486 11.8195 8.29054C9.86249 8.19233 7.94794 7.68395 6.19998 6.79834C4.45203 5.91274 2.90969 4.66968 1.67297 3.14976C1.0444 4.23349 0.852057 5.51589 1.13503 6.73634C1.418 7.95678 2.15506 9.02369 3.19641 9.72023C2.41463 9.69541 1.64998 9.48492 0.965625 9.10617V9.1671C0.964925 10.3044 1.3581 11.4068 2.07831 12.287C2.79852 13.1672 3.80132 13.7708 4.91625 13.9952C4.19206 14.1934 3.43198 14.2222 2.69484 14.0796C3.00945 15.0577 3.62157 15.9131 4.44577 16.5266C5.26997 17.14 6.26512 17.4808 7.29234 17.5015C5.54842 18.8714 3.39417 19.6144 1.17656 19.6109C0.783287 19.6103 0.390399 19.5861 0 19.5387C2.25286 20.984 4.87353 21.7516 7.55016 21.7502Z"/>
  	</symbol>

	<symbol id="linkedin" viewBox="0 0 24 24">
  		<path d="M22.2234 0H1.77187C0.792187 0 0 0.773438 0 1.72969V22.2656C0 23.2219 0.792187 24 1.77187 24H22.2234C23.2031 24 24 23.2219 24 22.2703V1.72969C24 0.773438 23.2031 0 22.2234 0ZM7.12031 20.4516H3.55781V8.99531H7.12031V20.4516ZM5.33906 7.43438C4.19531 7.43438 3.27188 6.51094 3.27188 5.37187C3.27188 4.23281 4.19531 3.30937 5.33906 3.30937C6.47813 3.30937 7.40156 4.23281 7.40156 5.37187C7.40156 6.50625 6.47813 7.43438 5.33906 7.43438ZM20.4516 20.4516H16.8937V14.8828C16.8937 13.5562 16.8703 11.8453 15.0422 11.8453C13.1906 11.8453 12.9094 13.2937 12.9094 14.7891V20.4516H9.35625V8.99531H12.7687V10.5609H12.8156C13.2891 9.66094 14.4516 8.70938 16.1813 8.70938C19.7859 8.70938 20.4516 11.0813 20.4516 14.1656V20.4516Z"/>
	</symbol>

	<symbol id="hat" viewBox="0 0 34 34">
		<path d="M16.5747 3.97413C16.8459 3.85563 17.1543 3.85563 17.4255 3.97413C22.6938 6.27596 27.6869 9.08983 32.3418 12.3527C32.6787 12.5888 32.849 12.9982 32.779 13.4036C32.709 13.8089 32.4112 14.1375 32.0147 14.2469C31.0444 14.5148 30.0824 14.8032 29.1292 15.1106C25.2602 16.3584 21.5358 17.9284 17.9876 19.7891L17.983 19.7915C17.8221 19.8759 17.6616 19.9609 17.5015 20.0464C17.1886 20.2136 16.8129 20.2136 16.5 20.0464C16.3384 19.96 16.1763 19.8742 16.0139 19.7891C14.2594 18.869 12.4618 18.0201 10.625 17.246V16.9291C10.625 16.743 10.7205 16.5779 10.8683 16.4883C13.0005 15.1966 15.2 14.0046 17.46 12.9191C17.989 12.665 18.2118 12.0302 17.9577 11.5013C17.7037 10.9723 17.0689 10.7495 16.54 11.0036C14.2177 12.119 11.9579 13.3437 9.7672 14.6709C9.12491 15.06 8.69313 15.6968 8.5511 16.4103C7.33996 15.9444 6.1129 15.5105 4.87091 15.11C3.91774 14.8026 2.95579 14.5147 1.98552 14.2469C1.58897 14.1375 1.29124 13.8089 1.22122 13.4035C1.15121 12.9982 1.3215 12.5888 1.65837 12.3527C6.31331 9.08981 11.3064 6.27596 16.5747 3.97413Z"/>
		<path d="M18.5029 21.9207C21.958 20.0746 25.588 18.5139 29.3616 17.27C29.5517 19.2743 29.6732 21.2985 29.7235 23.3402C29.7343 23.7783 29.475 24.1781 29.0706 24.3469C25.0315 26.0332 21.1896 28.0982 17.5892 30.4975C17.2324 30.7353 16.7676 30.7353 16.4108 30.4975C12.8105 28.0982 8.96853 26.0332 4.92943 24.3469C4.52506 24.1781 4.26581 23.7783 4.2766 23.3402C4.32691 21.2984 4.44835 19.274 4.63855 17.2695C5.9433 17.6996 7.23088 18.1675 8.5 18.672V20.4718C7.86484 20.8392 7.4375 21.5259 7.4375 22.3125C7.4375 23.0142 7.77761 23.6364 8.30198 24.0234C8.17516 24.5626 7.98748 25.0903 7.73892 25.5956C8.38024 25.8983 9.01607 26.2107 9.64622 26.5326C10.0051 25.8027 10.2653 25.0366 10.4269 24.2543C11.1697 23.9232 11.6875 23.1783 11.6875 22.3125C11.6875 21.5259 11.2602 20.8392 10.625 20.4718V19.5583C12.2845 20.2834 13.91 21.0719 15.4986 21.9207C16.4372 22.4222 17.5643 22.4222 18.5029 21.9207Z"/>
		<path d="M6.32148 27.5716C6.91525 26.9778 7.38795 26.309 7.73892 25.5956C8.38024 25.8983 9.01607 26.2107 9.64622 26.5326C9.19494 27.4504 8.58732 28.3109 7.82408 29.0742C7.40915 29.4891 6.73641 29.4891 6.32148 29.0742C5.90655 28.6592 5.90655 27.9865 6.32148 27.5716Z"/>
	</symbol>

	<symbol id="crown" viewBox="0 0 32 26">
		<path d="M5.48241 19.5115L5.85167 20.9105C6.31939 22.7294 7.34101 23.6621 9.37191 23.6621H22.6282C24.6715 23.6621 25.6807 22.7527 26.1607 20.9105L26.53 19.5115H5.48241ZM5.07624 17.9142H26.9485L29.2625 8.93679L28.2532 8.38882L22.579 12.3062C22.1605 12.5861 21.8774 12.4811 21.6435 12.1663L16.3016 4.51804L15.7108 4.49472L10.3197 12.2013C10.1104 12.5044 9.86426 12.5977 9.44576 12.3179L3.8823 8.47043L2.70068 8.76191L5.07624 17.9142ZM3.1561 11.2685C4.78083 11.2685 6.08553 10.0211 6.08553 8.47043C6.08553 6.95477 4.78083 5.6956 3.1561 5.6956C1.53137 5.6956 0.214355 6.94311 0.214355 8.47043C0.214355 10.0211 1.54367 11.2685 3.1561 11.2685ZM16.0063 6.41845C17.6186 6.41845 18.9356 5.17095 18.9356 3.63195C18.9356 2.11628 17.6186 0.857117 16.0063 0.857117C14.3692 0.857117 13.0645 2.10463 13.0645 3.63195C13.0645 5.17095 14.3815 6.41845 16.0063 6.41845ZM28.844 11.2685C30.4565 11.2685 31.7858 10.0211 31.7858 8.47043C31.7858 6.94311 30.4688 5.6956 28.844 5.6956C27.2317 5.6956 25.9147 6.95477 25.9147 8.47043C25.9147 10.0211 27.2317 11.2685 28.844 11.2685Z"/>
	</symbol>

	<symbol id="facemask" viewBox="0 0 34 18">
  		<path d="M17.0056 17.4669C23.6009 17.4669 28.2944 14.9118 28.2944 11.1624V5.63208C28.2944 2.31393 24.3016 0.5 17.0056 0.5C9.69845 0.5 5.7056 2.31393 5.7056 5.63208V11.1624C5.7056 14.9118 10.3991 17.4669 17.0056 17.4669ZM10.9774 6.60541C10.9774 6.10769 11.3889 5.68738 11.9006 5.68738H22.1106C22.6334 5.68738 23.0448 6.10769 23.0448 6.60541C23.0448 7.11419 22.6334 7.53449 22.1106 7.53449H11.9006C11.3889 7.53449 10.9774 7.11419 10.9774 6.60541ZM10.9774 10.8748C10.9774 10.366 11.3889 9.94567 11.9006 9.94567H22.1106C22.6334 9.94567 23.0448 10.366 23.0448 10.8748C23.0448 11.3835 22.6334 11.7927 22.1106 11.7927H11.9006C11.3889 11.7927 10.9774 11.3835 10.9774 10.8748ZM0 7.76676C0 11.3283 2.60256 13.8169 6.50638 13.8169H7.22932V12.0362H6.32843C3.62578 12.0362 1.79065 10.2443 1.79065 7.76676C1.79065 6.53905 2.44684 5.78693 3.6369 5.78693H6.77331V4.00618H3.6369C1.33464 4.00618 0 5.42193 0 7.76676ZM34 7.76676C34 5.42193 32.6765 4.00618 30.3631 4.00618H27.2267V5.78693H30.3631C31.5532 5.78693 32.2094 6.53905 32.2094 7.76676C32.2094 10.2443 30.3742 12.0362 27.6715 12.0362H26.7707V13.8169H27.5048C31.3974 13.8169 34 11.3283 34 7.76676Z"/>
	</symbol>

	<symbol id="flag" viewBox="0 0 34 34">
		<path fill-rule="evenodd" clip-rule="evenodd" d="M4.25 3.1875C4.8368 3.1875 5.3125 3.6632 5.3125 4.25V5.01418L7.9166 4.36315C11.1154 3.56346 14.4947 3.93442 17.4438 5.40897L17.5964 5.48527C20.0418 6.70801 22.8386 7.03469 25.5001 6.40847L29.9053 5.37194C30.2409 5.29297 30.594 5.38175 30.8523 5.61007C31.1106 5.83838 31.2421 6.17785 31.205 6.52061C30.9456 8.91527 30.8125 11.3481 30.8125 13.8125C30.8125 16.2974 30.9479 18.7503 31.2115 21.1643C31.2698 21.6978 30.9211 22.191 30.3987 22.3139L25.9868 23.352C22.8414 24.0921 19.5362 23.706 16.646 22.2609L16.4934 22.1846C13.998 20.9369 11.1386 20.623 8.43199 21.2997L5.3125 22.0796V29.75C5.3125 30.3368 4.8368 30.8125 4.25 30.8125C3.6632 30.8125 3.1875 30.3368 3.1875 29.75V4.25C3.1875 3.6632 3.6632 3.1875 4.25 3.1875Z"/>
	</symbol>

	<symbol id="ball" viewBox="0 0 34 34">
		<path fill-rule="evenodd" clip-rule="evenodd" d="M27.5527 11.9682L23.216 15.5821C23.428 16.5147 23.428 17.4853 23.216 18.4179L27.5527 22.0318C29.0658 18.8583 29.0658 15.1417 27.5527 11.9682ZM22.0318 27.5527L18.4179 23.216C17.4853 23.428 16.5147 23.428 15.5821 23.216L11.9682 27.5527C15.1417 29.0658 18.8583 29.0658 22.0318 27.5527ZM6.44728 22.0318L10.784 18.4179C10.572 17.4853 10.572 16.5147 10.784 15.5821L6.44728 11.9682C4.93424 15.1417 4.93424 18.8583 6.44728 22.0318ZM11.9682 6.44728L15.5821 10.784C16.5147 10.572 17.4853 10.572 18.4179 10.784L22.0318 6.44728C18.8583 4.93424 15.1417 4.93424 11.9682 6.44728ZM24.2328 5.2292C25.1351 5.78461 25.9866 6.45281 26.7669 7.23309C27.5472 8.01336 28.2154 8.86487 28.7708 9.76719C31.4931 14.1898 31.4931 19.8102 28.7708 24.2328C28.2154 25.1351 27.5472 25.9866 26.7669 26.7669C25.9866 27.5472 25.1351 28.2154 24.2328 28.7708C19.8102 31.4931 14.1898 31.4931 9.76719 28.7708C8.86487 28.2154 8.01336 27.5472 7.23309 26.7669C6.45281 25.9866 5.78461 25.1351 5.2292 24.2328C2.50694 19.8102 2.50693 14.1898 5.2292 9.76719C5.78461 8.86487 6.45281 8.01336 7.23309 7.23309C8.01336 6.45281 8.86487 5.78461 9.76719 5.2292C14.1898 2.50693 19.8102 2.50693 24.2328 5.2292ZM20.0052 13.9948C19.544 13.5336 19.0057 13.202 18.4329 12.9975C17.5086 12.6675 16.4914 12.6675 15.5671 12.9975C14.9943 13.202 14.456 13.5336 13.9948 13.9948C13.5336 14.456 13.202 14.9943 12.9975 15.5671C12.6675 16.4914 12.6675 17.5086 12.9975 18.4329C13.202 19.0057 13.5336 19.544 13.9948 20.0052C14.456 20.4664 14.9943 20.798 15.5671 21.0025C16.4914 21.3325 17.5086 21.3325 18.4329 21.0025C19.0057 20.798 19.544 20.4664 20.0052 20.0052C20.4664 19.544 20.798 19.0057 21.0025 18.4329C21.3325 17.5086 21.3325 16.4914 21.0025 15.5671C20.798 14.9943 20.4664 14.456 20.0052 13.9948Z"/>
	</symbol>

	<symbol id="users" viewBox="0 0 34 34">
		<path d="M6.375 9.03125C6.375 5.80384 8.99134 3.1875 12.2188 3.1875C15.4462 3.1875 18.0625 5.80384 18.0625 9.03125C18.0625 12.2587 15.4462 14.875 12.2188 14.875C8.99134 14.875 6.375 12.2587 6.375 9.03125Z"/>
		<path d="M20.1875 12.2188C20.1875 9.57814 22.3281 7.4375 24.9688 7.4375C27.6094 7.4375 29.75 9.57814 29.75 12.2188C29.75 14.8594 27.6094 17 24.9688 17C22.3281 17 20.1875 14.8594 20.1875 12.2188Z"/>
		<path d="M2.125 27.0938C2.125 21.5191 6.64413 17 12.2188 17C17.7934 17 22.3125 21.5191 22.3125 27.0938V27.0974C22.3125 27.1538 22.312 27.2104 22.311 27.2665C22.3049 27.6327 22.1105 27.9699 21.7967 28.1589C18.9985 29.8437 15.7201 30.8125 12.2188 30.8125C8.71736 30.8125 5.439 29.8437 2.64075 28.1589C2.32696 27.9699 2.13261 27.6327 2.12645 27.2665C2.12549 27.2091 2.125 27.1515 2.125 27.0938Z"/>
		<path d="M24.4373 27.0982C24.4373 27.1663 24.4367 27.2345 24.4355 27.3022C24.4275 27.782 24.3117 28.2452 24.1055 28.6619C24.3911 28.6789 24.6788 28.6875 24.9685 28.6875C27.2291 28.6875 29.3704 28.1638 31.2749 27.2301C31.6249 27.0586 31.8528 26.7092 31.8688 26.3198C31.8728 26.2241 31.8748 26.1279 31.8748 26.0312C31.8748 22.217 28.7827 19.125 24.9685 19.125C23.9111 19.125 22.9091 19.3627 22.0132 19.7875C23.5357 21.8253 24.4373 24.3543 24.4373 27.0938V27.0982Z"/>
	</symbol>

	<symbol id="star" viewBox="0 0 20 20">
		<path d="M7.9414 1.9429C8.71409 0.62493 10.6194 0.624932 11.3921 1.9429L13.1179 4.88664C13.3999 5.36761 13.8699 5.70904 14.4144 5.8286L17.7474 6.5603C19.2396 6.8879 19.8284 8.69996 18.8137 9.8421L16.5474 12.3931C16.1771 12.8099 15.9976 13.3624 16.0522 13.9173L16.3862 17.3132C16.5358 18.8337 14.9943 19.9536 13.5945 19.3415L10.468 17.9744C9.95719 17.751 9.37631 17.751 8.86547 17.9744L5.73895 19.3415C4.33915 19.9536 2.79772 18.8337 2.94728 17.3132L3.28134 13.9173C3.33592 13.3624 3.15641 12.8099 2.78612 12.3931L0.51977 9.8421C-0.494916 8.69995 0.0938594 6.8879 1.58609 6.5603L4.91907 5.8286C5.46364 5.70904 5.93358 5.36761 6.21556 4.88664L7.9414 1.9429Z"/>
	</symbol>

	<symbol id="chart" viewBox="0 0 34 34">
  		<path fill-rule="evenodd" clip-rule="evenodd" d="M3.1875 19.125C3.1875 12.6702 8.42017 7.4375 14.875 7.4375C15.4618 7.4375 15.9375 7.9132 15.9375 8.5V18.0625H25.5C26.0868 18.0625 26.5625 18.5382 26.5625 19.125C26.5625 25.5798 21.3298 30.8125 14.875 30.8125C8.42017 30.8125 3.1875 25.5798 3.1875 19.125Z"/>
  		<path fill-rule="evenodd" clip-rule="evenodd" d="M18.0625 4.25C18.0625 3.6632 18.5382 3.1875 19.125 3.1875C25.5798 3.1875 30.8125 8.42017 30.8125 14.875C30.8125 15.4618 30.3368 15.9375 29.75 15.9375H19.125C18.5382 15.9375 18.0625 15.4618 18.0625 14.875V4.25Z"/>
	</symbol>

	<symbol id="rate" viewBox="0 0 35 34">
  		<path d="M26.3643 3.1875C24.8973 3.1875 23.708 4.37674 23.708 5.84375V28.1562C23.708 29.6233 24.8973 30.8125 26.3643 30.8125H27.4268C28.8938 30.8125 30.083 29.6233 30.083 28.1562V5.84375C30.083 4.37674 28.8938 3.1875 27.4268 3.1875H26.3643Z"/>
  		<path d="M14.1455 12.2188C14.1455 10.7517 15.3348 9.5625 16.8018 9.5625H17.8643C19.3313 9.5625 20.5205 10.7517 20.5205 12.2188V28.1562C20.5205 29.6233 19.3313 30.8125 17.8643 30.8125H16.8018C15.3348 30.8125 14.1455 29.6233 14.1455 28.1562V12.2188Z"/>
  		<path d="M4.58301 18.5938C4.58301 17.1267 5.77225 15.9375 7.23926 15.9375H8.30176C9.76876 15.9375 10.958 17.1267 10.958 18.5938V28.1562C10.958 29.6233 9.76876 30.8125 8.30176 30.8125H7.23926C5.77225 30.8125 4.58301 29.6233 4.58301 28.1562V18.5938Z"/>
	</symbol>

	<symbol id="lightning" viewBox="0 0 35 34">
  		<path fill-rule="evenodd" clip-rule="evenodd" d="M21.3719 2.25948C21.7986 2.4974 22.0081 2.99569 21.8796 3.46707L19.0581 13.8125H29.3545C29.7776 13.8125 30.1604 14.0635 30.329 14.4515C30.4976 14.8396 30.4199 15.2907 30.1313 15.6L15.2563 31.5375C14.9229 31.8947 14.3889 31.9784 13.9621 31.7405C13.5354 31.5026 13.3259 31.0043 13.4545 30.5329L16.2759 20.1875H5.97952C5.55643 20.1875 5.17367 19.9365 5.00505 19.5485C4.83643 19.1604 4.91409 18.7093 5.20277 18.4L20.0778 2.46254C20.4111 2.10535 20.9451 2.02157 21.3719 2.25948Z"/>
	</symbol>

	<symbol id="envelope" viewBox="0 0 24 24">
		<path d="M21.2011 3.4939H2.79891C1.25288 3.4939 0 4.74677 0 6.29238V17.7077C0 19.2534 1.25288 20.5062 2.79891 20.5062H21.2011C22.7467 20.5062 24 19.2534 24 17.7077V6.29238C24 4.74677 22.7467 3.4939 21.2011 3.4939ZM22.6636 18.4617L22.1308 19.0927L14.6699 13.0035L13.5144 14.1029C12.6581 14.8893 11.342 14.8893 10.4856 14.1029L9.33014 13.0035L1.86919 19.0927L1.33641 18.4617L8.34141 12.0625L1.29052 5.43607L1.70738 4.88374L12 12.6826L22.2926 4.88374L22.7091 5.43607L15.6586 12.0625L22.6636 18.4617Z"/>
	</symbol>

	<symbol id="painting" viewBox="0 0 34 34">
		<path fill-rule="evenodd" clip-rule="evenodd" d="M29.1802 2.125C28.6484 2.125 28.1285 2.28241 27.6861 2.57739L20.4908 7.37422C18.5565 8.66379 16.8068 10.197 15.2819 11.9303C18.2782 13.303 20.6959 15.7207 22.0685 18.717C23.8018 17.1921 25.3351 15.4424 26.6246 13.508L31.4214 6.31279C31.7164 5.87032 31.8738 5.35042 31.8738 4.81863C31.8738 3.33098 30.6679 2.125 29.1802 2.125ZM17.4232 21.9936C18.4806 21.4062 19.4935 20.7489 20.4557 20.0276C19.2635 17.0851 16.9137 14.7353 13.9713 13.5431C13.2499 14.5054 12.5927 15.5183 12.0052 16.5757L11.6107 17.2859C14.0707 17.9895 16.0093 19.9282 16.7129 22.3882L17.4232 21.9936ZM9.56134 19.125C6.62729 19.125 4.24884 21.5035 4.24884 24.4375C4.24884 25.6111 3.29745 26.5625 2.12384 26.5625C2.07572 26.5625 2.02783 26.5609 1.98025 26.5577C1.58903 26.5319 1.21537 26.7236 1.00816 27.0564C0.800953 27.3893 0.793886 27.8092 0.989775 28.1488C2.27299 30.3736 4.67867 31.875 7.43634 31.875C11.544 31.875 14.8738 28.5451 14.8738 24.4375C14.8738 21.5035 12.4954 19.125 9.56134 19.125Z"/>
	</symbol>

	<symbol id="music" viewBox="0 0 34 34">
		<path fill-rule="evenodd" clip-rule="evenodd" d="M28.2648 2.33926C28.531 2.54004 28.6875 2.85411 28.6875 3.18751V8.47654C28.6879 8.49258 28.6879 8.50858 28.6875 8.52454V23.0957C28.6875 24.9932 27.4296 26.6609 25.6051 27.1821L23.7351 27.7164C21.4248 28.3765 19.125 26.6418 19.125 24.239C19.125 22.6243 20.1954 21.2052 21.748 20.7616L25.0213 19.8264C25.9335 19.5658 26.5625 18.7319 26.5625 17.7832V9.9086L13.8125 13.5515V27.3457C13.8125 29.2432 12.5546 30.9109 10.7301 31.4321L8.86009 31.9664C6.54978 32.6265 4.25 30.8918 4.25 28.489C4.25 26.8743 5.32042 25.4552 6.87301 25.0116L10.1463 24.0764C11.0585 23.8158 11.6875 22.9819 11.6875 22.0332V12.7735C11.6871 12.7574 11.6871 12.7414 11.6875 12.7255V7.43751C11.6875 6.96312 12.002 6.54621 12.4581 6.41589L27.3331 2.16589C27.6537 2.0743 27.9987 2.13849 28.2648 2.33926Z"/>
	</symbol>

	<symbol id="puzzle" viewBox="0 0 34 34">
		<path d="M15.9375 7.56066C15.9375 7.05752 15.6739 6.60275 15.3691 6.20245C15.0562 5.79148 14.875 5.304 14.875 4.78125C14.875 3.31424 16.3021 2.125 18.0625 2.125C19.8229 2.125 21.25 3.31424 21.25 4.78125C21.25 5.304 21.0688 5.79148 20.7559 6.20245C20.4511 6.60275 20.1875 7.05753 20.1875 7.56066C20.1875 8.03149 20.5809 8.40735 21.0509 8.3793C23.7576 8.21779 26.4206 7.89548 29.0306 7.42189C29.3178 7.36977 29.6138 7.43813 29.8491 7.61091C30.0844 7.78369 30.2383 8.04568 30.2745 8.33534C30.5919 10.8704 30.7718 13.4479 30.8067 16.06C30.8136 16.579 30.3922 16.9999 29.8732 17C29.37 17 28.9152 16.7364 28.5149 16.4316C28.104 16.1187 27.6165 15.9375 27.0937 15.9375C25.6267 15.9375 24.4375 17.3646 24.4375 19.125C24.4375 20.8854 25.6267 22.3125 27.0937 22.3125C27.6165 22.3125 28.104 22.1313 28.5149 21.8184C28.9152 21.5136 29.37 21.25 29.8732 21.25C30.3129 21.25 30.6621 21.6207 30.6304 22.0593C30.4622 24.3806 30.1794 26.6703 29.7873 28.9228C29.7104 29.3646 29.3645 29.7105 28.9227 29.7874C26.3456 30.2359 23.7198 30.5415 21.0538 30.6958C20.582 30.7231 20.1875 30.3457 20.1875 29.8732C20.1875 29.37 20.4511 28.9152 20.7559 28.5149C21.0688 28.104 21.25 27.6165 21.25 27.0938C21.25 25.6267 19.8229 24.4375 18.0625 24.4375C16.3021 24.4375 14.875 25.6267 14.875 27.0938C14.875 27.6165 15.0562 28.104 15.3691 28.5149C15.6739 28.9152 15.9375 29.37 15.9375 29.8732C15.9375 30.3854 15.5181 30.7991 15.0061 30.7846C12.7543 30.7207 10.5292 30.549 8.33585 30.2744C8.04619 30.2381 7.7842 30.0843 7.61143 29.849C7.43864 29.6137 7.37029 29.3176 7.42241 29.0304C7.83732 26.7439 8.13613 24.4168 8.31243 22.0552C8.34499 21.6191 7.99797 21.25 7.56066 21.25C7.05752 21.25 6.60275 21.5136 6.20245 21.8184C5.79148 22.1313 5.304 22.3125 4.78125 22.3125C3.31424 22.3125 2.125 20.8854 2.125 19.125C2.125 17.3646 3.31424 15.9375 4.78125 15.9375C5.304 15.9375 5.79148 16.1187 6.20245 16.4316C6.60275 16.7364 7.05753 17 7.56066 17C8.07968 17 8.5011 16.5792 8.49396 16.0603C8.46223 13.7536 8.31388 11.4754 8.05458 9.2314C8.01735 8.90914 8.12937 8.58753 8.35876 8.35814C8.58815 8.12875 8.90976 8.01673 9.23202 8.05396C11.1336 8.27369 13.0597 8.41376 15.0068 8.4707C15.5184 8.48565 15.9375 8.07241 15.9375 7.56066Z"/>
	</symbol>

	<symbol id="science" viewBox="0 0 34 34">
		<path fill-rule="evenodd" clip-rule="evenodd" d="M14.8767 5.37991V12.4922C14.8767 13.6194 14.4289 14.7004 13.6319 15.4974L10.2644 18.8649C12.7398 18.6887 15.2419 19.1822 17.4769 20.2997C19.975 21.5487 22.866 21.8762 25.5697 21.2003L25.9735 21.0994L20.3715 15.4974C19.5745 14.7004 19.1267 13.6194 19.1267 12.4922V5.37991C18.4242 5.3352 17.7157 5.3125 17.0017 5.3125C16.2877 5.3125 15.5791 5.3352 14.8767 5.37991ZM21.2517 5.57566C21.7804 5.57632 22.2389 5.18263 22.306 4.64452C22.3786 4.06223 21.9655 3.53132 21.3832 3.45871C21.0196 3.41338 20.6544 3.37362 20.2876 3.33951C19.2055 3.2389 18.1095 3.1875 17.0017 3.1875C15.8939 3.1875 14.7979 3.2389 13.7158 3.33951C13.349 3.37362 12.9837 3.41338 12.6202 3.45871C12.0379 3.53132 11.6247 4.06223 11.6974 4.64452C11.7645 5.18263 12.223 5.57632 12.7517 5.57566V12.4922C12.7517 13.0558 12.5278 13.5963 12.1293 13.9948L3.21394 22.9102C0.917322 25.2068 1.93469 29.2505 5.29772 29.8247C9.10265 30.4743 13.0131 30.8125 17.0017 30.8125C20.9903 30.8125 24.9007 30.4743 28.7057 29.8247C32.0687 29.2505 33.0861 25.2068 30.7895 22.9102L21.8741 13.9948C21.4756 13.5963 21.2517 13.0558 21.2517 12.4922V5.57566Z"/>
	</symbol>

	<symbol id="sparkling" viewBox="0 0 34 34">
		<path fill-rule="evenodd" clip-rule="evenodd" d="M12.75 6.375C13.2244 6.375 13.6413 6.68948 13.7716 7.14561L14.9236 11.1777C15.4279 12.9426 16.8074 14.3221 18.5723 14.8264L22.6044 15.9784C23.0605 16.1087 23.375 16.5256 23.375 17C23.375 17.4744 23.0605 17.8913 22.6044 18.0216L18.5723 19.1736C16.8074 19.6779 15.4279 21.0574 14.9236 22.8223L13.7716 26.8544C13.6413 27.3105 13.2244 27.625 12.75 27.625C12.2756 27.625 11.8587 27.3105 11.7284 26.8544L10.5764 22.8223C10.0721 21.0574 8.69256 19.6779 6.92771 19.1736L2.89561 18.0216C2.43948 17.8913 2.125 17.4744 2.125 17C2.125 16.5256 2.43948 16.1087 2.89561 15.9784L6.92771 14.8264C8.69257 14.3221 10.0721 12.9426 10.5764 11.1777L11.7284 7.14561C11.8587 6.68948 12.2756 6.375 12.75 6.375Z"/>
		<path fill-rule="evenodd" clip-rule="evenodd" d="M25.5 2.125C25.9875 2.125 26.4125 2.45682 26.5308 2.92981L26.8975 4.39671C27.2306 5.72908 28.2709 6.7694 29.6033 7.1025L31.0702 7.46922C31.5432 7.58747 31.875 8.01245 31.875 8.5C31.875 8.98755 31.5432 9.41253 31.0702 9.53078L29.6033 9.8975C28.2709 10.2306 27.2306 11.2709 26.8975 12.6033L26.5308 14.0702C26.4125 14.5432 25.9875 14.875 25.5 14.875C25.0125 14.875 24.5875 14.5432 24.4692 14.0702L24.1025 12.6033C23.7694 11.2709 22.7291 10.2306 21.3967 9.8975L19.9298 9.53078C19.4568 9.41253 19.125 8.98755 19.125 8.5C19.125 8.01245 19.4568 7.58747 19.9298 7.46922L21.3967 7.1025C22.7291 6.7694 23.7694 5.72908 24.1025 4.39671L24.4692 2.92981C24.5875 2.45682 25.0125 2.125 25.5 2.125Z"/>
		<path fill-rule="evenodd" clip-rule="evenodd" d="M23.375 21.25C23.8323 21.25 24.2384 21.5426 24.383 21.9765L24.9415 23.652C25.153 24.2866 25.6509 24.7845 26.2855 24.996L27.961 25.5545C28.3949 25.6991 28.6875 26.1052 28.6875 26.5625C28.6875 27.0198 28.3949 27.4259 27.961 27.5705L26.2855 28.129C25.6509 28.3405 25.153 28.8384 24.9415 29.473L24.383 31.1485C24.2384 31.5824 23.8323 31.875 23.375 31.875C22.9177 31.875 22.5116 31.5824 22.367 31.1485L21.8085 29.473C21.597 28.8384 21.0991 28.3405 20.4645 28.129L18.789 27.5705C18.3551 27.4259 18.0625 27.0198 18.0625 26.5625C18.0625 26.1052 18.3551 25.6991 18.789 25.5545L20.4645 24.996C21.0991 24.7845 21.597 24.2866 21.8085 23.652L22.367 21.9765C22.5116 21.5426 22.9177 21.25 23.375 21.25Z"/>
	</symbol>

	<symbol id="book" viewBox="0 0 34 34">
		<path d="M15.9375 6.42156C13.7906 5.04729 11.2377 4.25 8.5 4.25C6.88752 4.25 5.33738 4.52675 3.89593 5.03623C3.47136 5.18629 3.1875 5.58769 3.1875 6.038V26.2255C3.1875 26.5704 3.35492 26.8939 3.63653 27.093C3.91813 27.2921 4.27888 27.3422 4.60407 27.2273C5.82125 26.7971 7.13208 26.5625 8.5 26.5625C11.3263 26.5625 13.9163 27.5644 15.9375 29.2339V6.42156Z"/>
		<path d="M18.0625 29.2339C20.0837 27.5644 22.6737 26.5625 25.5 26.5625C26.8679 26.5625 28.1788 26.7971 29.3959 27.2273C29.7211 27.3422 30.0819 27.2921 30.3635 27.093C30.6451 26.8939 30.8125 26.5704 30.8125 26.2255V6.038C30.8125 5.58769 30.5286 5.18629 30.1041 5.03623C28.6626 4.52675 27.1125 4.25 25.5 4.25C22.7623 4.25 20.2094 5.04729 18.0625 6.42156V29.2339Z"/>
	</symbol>

	<symbol id="sun" viewBox="0 0 34 34">
		<path d="M17 3.1875C17.5868 3.1875 18.0625 3.6632 18.0625 4.25V7.4375C18.0625 8.0243 17.5868 8.5 17 8.5C16.4132 8.5 15.9375 8.0243 15.9375 7.4375V4.25C15.9375 3.6632 16.4132 3.1875 17 3.1875Z"/>
		<path d="M10.625 17C10.625 13.4792 13.4792 10.625 17 10.625C20.5208 10.625 23.375 13.4792 23.375 17C23.375 20.5208 20.5208 23.375 17 23.375C13.4792 23.375 10.625 20.5208 10.625 17Z"/>
		<path d="M26.767 8.73565C27.1819 8.32071 27.1819 7.64798 26.767 7.23304C26.3521 6.81811 25.6793 6.81811 25.2644 7.23304L23.0105 9.48695C22.5955 9.90188 22.5955 10.5746 23.0105 10.9895C23.4254 11.4045 24.0982 11.4045 24.5131 10.9895L26.767 8.73565Z"/>
		<path d="M30.8125 17C30.8125 17.5868 30.3368 18.0625 29.75 18.0625H26.5625C25.9757 18.0625 25.5 17.5868 25.5 17C25.5 16.4132 25.9757 15.9375 26.5625 15.9375H29.75C30.3368 15.9375 30.8125 16.4132 30.8125 17Z"/>
		<path d="M25.2642 26.7669C25.6792 27.1818 26.3519 27.1818 26.7668 26.7669C27.1818 26.3519 27.1818 25.6792 26.7668 25.2643L24.5129 23.0104C24.098 22.5954 23.4253 22.5954 23.0103 23.0104C22.5954 23.4253 22.5954 24.098 23.0103 24.513L25.2642 26.7669Z"/>
		<path d="M17 25.5C17.5868 25.5 18.0625 25.9757 18.0625 26.5625V29.75C18.0625 30.3368 17.5868 30.8125 17 30.8125C16.4132 30.8125 15.9375 30.3368 15.9375 29.75V26.5625C15.9375 25.9757 16.4132 25.5 17 25.5Z"/>
		<path d="M10.9898 24.513C11.4047 24.098 11.4047 23.4253 10.9898 23.0104C10.5749 22.5954 9.90213 22.5954 9.48719 23.0104L7.23329 25.2643C6.81836 25.6792 6.81836 26.3519 7.23329 26.7669C7.64822 27.1818 8.32096 27.1818 8.73589 26.7669L10.9898 24.513Z"/>
		<path d="M8.5 17C8.5 17.5868 8.0243 18.0625 7.4375 18.0625H4.25C3.6632 18.0625 3.1875 17.5868 3.1875 17C3.1875 16.4132 3.6632 15.9375 4.25 15.9375H7.4375C8.0243 15.9375 8.5 16.4132 8.5 17Z"/>
		<path d="M9.48703 10.9895C9.90197 11.4045 10.5747 11.4045 10.9896 10.9895C11.4046 10.5746 11.4046 9.90187 10.9896 9.48693L8.73573 7.23303C8.3208 6.8181 7.64806 6.8181 7.23313 7.23303C6.8182 7.64796 6.8182 8.3207 7.23313 8.73563L9.48703 10.9895Z"/>
	</symbol>

	<symbol id="lamp" viewBox="0 0 34 34">
		<path d="M17 1.0625C10.5452 1.0625 5.3125 6.29517 5.3125 12.75C5.3125 17.0719 7.65894 20.8446 11.1423 22.8656C12.1134 23.4291 12.7215 24.2936 12.749 25.1636C12.7642 25.6435 13.0993 26.0536 13.5666 26.164C14.0644 26.2817 14.5716 26.3743 15.0869 26.4405C15.5454 26.4994 15.9378 26.1322 15.9378 25.67V19.0668C15.4854 19.0168 15.0422 18.9352 14.6104 18.824C14.0421 18.6778 13.7 18.0985 13.8463 17.5302C13.9926 16.9619 14.5718 16.6198 15.1401 16.7661C15.7334 16.9188 16.3565 17.0003 17.0003 17.0003C17.644 17.0003 18.2671 16.9188 18.8604 16.7661C19.4287 16.6198 20.008 16.9619 20.1542 17.5302C20.3005 18.0985 19.9584 18.6778 19.3901 18.824C18.9583 18.9352 18.5151 19.0168 18.0628 19.0668V25.6699C18.0628 26.1321 18.4552 26.4994 18.9136 26.4404C19.4287 26.3742 19.9358 26.2817 20.4334 26.164C20.9007 26.0536 21.2358 25.6435 21.251 25.1636C21.2785 24.2936 21.8866 23.4291 22.8577 22.8656C26.3411 20.8446 28.6875 17.0719 28.6875 12.75C28.6875 6.29517 23.4548 1.0625 17 1.0625Z"/>
		<path fill-rule="evenodd" clip-rule="evenodd" d="M12.7686 28.1912C12.878 27.6147 13.434 27.2359 14.0105 27.3453C14.9781 27.5288 15.9773 27.625 17 27.625C18.0227 27.625 19.0219 27.5288 19.9895 27.3453C20.566 27.2359 21.122 27.6147 21.2314 28.1912C21.3407 28.7677 20.962 29.3237 20.3855 29.4331C19.2881 29.6413 18.1563 29.75 17 29.75C15.8438 29.75 14.7119 29.6413 13.6145 29.4331C13.038 29.3237 12.6593 28.7677 12.7686 28.1912Z"/>
		<path fill-rule="evenodd" clip-rule="evenodd" d="M13.8183 31.654C13.8793 31.0703 14.4019 30.6467 14.9855 30.7078C15.6472 30.777 16.3193 30.8125 17 30.8125C17.6807 30.8125 18.3528 30.777 19.0145 30.7078C19.5981 30.6467 20.1207 31.0703 20.1817 31.654C20.2428 32.2376 19.8192 32.7602 19.2355 32.8212C18.5005 32.8981 17.7547 32.9375 17 32.9375C16.2453 32.9375 15.4995 32.8981 14.7645 32.8212C14.1808 32.7602 13.7572 32.2376 13.8183 31.654Z"/>
	</symbol>

	<symbol id="people" viewBox="0 0 35 34">
		<path fill-rule="evenodd" clip-rule="evenodd" d="M12.3555 9.5625C12.3555 6.62849 14.734 4.25 17.668 4.25C20.602 4.25 22.9805 6.62849 22.9805 9.5625C22.9805 12.4965 20.602 14.875 17.668 14.875C14.734 14.875 12.3555 12.4965 12.3555 9.5625Z"/>
		<path fill-rule="evenodd" clip-rule="evenodd" d="M22.9805 13.8125C22.9805 11.4653 24.8833 9.5625 27.2305 9.5625C29.5777 9.5625 31.4805 11.4653 31.4805 13.8125C31.4805 16.1597 29.5777 18.0625 27.2305 18.0625C24.8833 18.0625 22.9805 16.1597 22.9805 13.8125Z"/>
		<path fill-rule="evenodd" clip-rule="evenodd" d="M3.85547 13.8125C3.85547 11.4653 5.75826 9.5625 8.10547 9.5625C10.4527 9.5625 12.3555 11.4653 12.3555 13.8125C12.3555 16.1597 10.4527 18.0625 8.10547 18.0625C5.75826 18.0625 3.85547 16.1597 3.85547 13.8125Z"/>
		<path fill-rule="evenodd" clip-rule="evenodd" d="M9.60694 21.4165C11.3041 18.7629 14.2798 17 17.668 17C21.0566 17 24.0326 18.7633 25.7296 21.4175C26.9029 23.2524 27.4104 25.4649 27.1723 27.6221C27.1351 27.9592 26.9392 28.2583 26.645 28.4271C23.9996 29.945 20.9335 30.8125 17.668 30.8125C14.4024 30.8125 11.3363 29.945 8.6909 28.4271C8.39672 28.2583 8.20081 27.9592 8.1636 27.6221C7.92546 25.4645 8.4333 23.2516 9.60694 21.4165Z"/>
		<path d="M7.86787 20.1927C7.85081 20.2189 7.83385 20.2452 7.817 20.2716C6.44926 22.4101 5.82333 24.957 6.01548 27.4678C5.15408 27.3369 4.31829 27.1265 3.51608 26.8439L3.35322 26.7866C3.05613 26.682 2.84854 26.4122 2.82356 26.0982L2.80986 25.9261C2.79866 25.7853 2.79297 25.6432 2.79297 25.5C2.79297 22.6456 5.04412 20.317 7.86787 20.1927Z"/>
		<path d="M29.321 27.4677C29.513 24.9574 28.8874 22.4111 27.5202 20.2728C27.5031 20.246 27.4859 20.2193 27.4686 20.1927C30.2921 20.3173 32.543 22.6458 32.543 25.5C32.543 25.6432 32.5373 25.7853 32.5261 25.9261L32.5124 26.0982C32.4874 26.4122 32.2798 26.682 31.9827 26.7866L31.8199 26.8439C31.0178 27.1264 30.1822 27.3368 29.321 27.4677Z"/>
	</symbol>

	<symbol id="clock" viewBox="0 0 25 24">
		<path fill-rule="evenodd" clip-rule="evenodd" d="M12.5 2.25C7.11522 2.25 2.75 6.61522 2.75 12C2.75 17.3848 7.11522 21.75 12.5 21.75C17.8848 21.75 22.25 17.3848 22.25 12C22.25 6.61522 17.8848 2.25 12.5 2.25ZM13.25 6C13.25 5.58579 12.9142 5.25 12.5 5.25C12.0858 5.25 11.75 5.58579 11.75 6V12C11.75 12.4142 12.0858 12.75 12.5 12.75H17C17.4142 12.75 17.75 12.4142 17.75 12C17.75 11.5858 17.4142 11.25 17 11.25H13.25V6Z"/>
	</symbol>

  </defs>
</svg>