<?xml version="1.0" encoding="utf-8"?>
<svg xmlns="http://www.w3.org/2000/svg">
  <defs>

	<!-- Arrows -->
	<symbol id="arrow-right" viewBox="0 0 31 30">
  		<path fill-rule="evenodd" clip-rule="evenodd" d="M5 15C5 14.3787 5.50368 13.875 6.125 13.875L22.0819 13.875L15.8453 7.93593C15.3974 7.50529 15.3834 6.79312 15.8141 6.34525C16.2447 5.89738 16.9569 5.88342 17.4047 6.31406L25.6547 14.1891C25.8753 14.4012 26 14.694 26 15C26 15.306 25.8753 15.5988 25.6547 15.8109L17.4047 23.6859C16.9569 24.1166 16.2447 24.1026 15.8141 23.6547C15.3834 23.2069 15.3974 22.4947 15.8453 22.0641L22.0819 16.125L6.125 16.125C5.50368 16.125 5 15.6213 5 15Z"/>
	</symbol>

	<symbol id="message" viewBox="0 0 24 24">
		<path d="M1.5 8.6691V17.25C1.5 18.9069 2.84315 20.25 4.5 20.25H19.5C21.1569 20.25 22.5 18.9069 22.5 17.25V8.6691L13.5723 14.1631C12.6081 14.7564 11.3919 14.7564 10.4277 14.1631L1.5 8.6691Z"/>
		<path d="M22.5 6.90783V6.75C22.5 5.09315 21.1569 3.75 19.5 3.75H4.5C2.84315 3.75 1.5 5.09315 1.5 6.75V6.90783L11.2139 12.8856C11.696 13.1823 12.304 13.1823 12.7861 12.8856L22.5 6.90783Z"/>
	</symbol>

	<symbol id="phone" viewBox="0 0 24 24">
		<path fill-rule="evenodd" clip-rule="evenodd" d="M1.5 4.5C1.5 2.84315 2.84315 1.5 4.5 1.5H5.87163C6.732 1.5 7.48197 2.08556 7.69064 2.92025L8.79644 7.34343C8.97941 8.0753 8.70594 8.84555 8.10242 9.29818L6.8088 10.2684C6.67447 10.3691 6.64527 10.5167 6.683 10.6197C7.81851 13.7195 10.2805 16.1815 13.3803 17.317C13.4833 17.3547 13.6309 17.3255 13.7316 17.1912L14.7018 15.8976C15.1545 15.2941 15.9247 15.0206 16.6566 15.2036L21.0798 16.3094C21.9144 16.518 22.5 17.268 22.5 18.1284V19.5C22.5 21.1569 21.1569 22.5 19.5 22.5H17.25C8.55151 22.5 1.5 15.4485 1.5 6.75V4.5Z"/>
	</symbol>

	<symbol id="map" viewBox="0 0 24 24">
		<path fill-rule="evenodd" clip-rule="evenodd" d="M11.5397 22.351C11.57 22.3685 11.5937 22.3821 11.6105 22.3915L11.6384 22.4071C11.8613 22.5294 12.1378 22.5285 12.3608 22.4075L12.3895 22.3915C12.4063 22.3821 12.43 22.3685 12.4603 22.351C12.5207 22.316 12.607 22.265 12.7155 22.1982C12.9325 22.0646 13.2388 21.8676 13.6046 21.6091C14.3351 21.0931 15.3097 20.3274 16.2865 19.3273C18.2307 17.3368 20.25 14.3462 20.25 10.5C20.25 5.94365 16.5563 2.25 12 2.25C7.44365 2.25 3.75 5.94365 3.75 10.5C3.75 14.3462 5.76932 17.3368 7.71346 19.3273C8.69025 20.3274 9.66491 21.0931 10.3954 21.6091C10.7612 21.8676 11.0675 22.0646 11.2845 22.1982C11.393 22.265 11.4793 22.316 11.5397 22.351ZM12 13.5C13.6569 13.5 15 12.1569 15 10.5C15 8.84315 13.6569 7.5 12 7.5C10.3431 7.5 9 8.84315 9 10.5C9 12.1569 10.3431 13.5 12 13.5Z"/>
	</symbol>

  </defs>
</svg>