<?xml version="1.0" encoding="utf-8"?>
<svg xmlns="http://www.w3.org/2000/svg">
  <defs>

	<symbol id="chart" viewBox="0 0 9.5 12.17">
		<path d="M12,14.08a.75.75,0,0,1-.75-.75V6.67a.75.75,0,0,1,1.5,0v6.66A.75.75,0,0,1,12,14.08Z" transform="translate(-3.25 -1.92)"/>
		<path d="M8,14.08a.75.75,0,0,1-.75-.75V2.67a.75.75,0,0,1,1.5,0V13.33A.75.75,0,0,1,8,14.08Z" transform="translate(-3.25 -1.92)"/>
		<path d="M4,14.08a.75.75,0,0,1-.75-.75v-4a.75.75,0,0,1,1.5,0v4A.75.75,0,0,1,4,14.08Z" transform="translate(-3.25 -1.92)"/>
	</symbol>

	<symbol id="case" viewBox="0 0 14.83 13.5">
		<path d="M13.33,14.75H2.67A2.09,2.09,0,0,1,.58,12.67V6A2.09,2.09,0,0,1,2.67,3.92H13.33A2.09,2.09,0,0,1,15.42,6v6.67A2.09,2.09,0,0,1,13.33,14.75ZM2.67,5.42A.58.58,0,0,0,2.08,6v6.67a.58.58,0,0,0,.59.58H13.33a.58.58,0,0,0,.59-.58V6a.58.58,0,0,0-.59-.58Z" transform="translate(-0.58 -1.25)"/>
		<path d="M10.67,14.75A.75.75,0,0,1,9.92,14V3.33a.58.58,0,0,0-.17-.41.59.59,0,0,0-.42-.17H6.67a.59.59,0,0,0-.42.17.58.58,0,0,0-.17.41V14a.75.75,0,0,1-1.5,0V3.33a2.08,2.08,0,0,1,.61-1.47,2.11,2.11,0,0,1,1.48-.61H9.33a2.11,2.11,0,0,1,1.48.61,2.08,2.08,0,0,1,.61,1.47V14A.76.76,0,0,1,10.67,14.75Z" transform="translate(-0.58 -1.25)"/>
	</symbol>

	<symbol id="person" viewBox="0 0 16.17 13.5">
		<path d="M11.33,14.75a.76.76,0,0,1-.75-.75V12.67A1.9,1.9,0,0,0,10,11.31a1.94,1.94,0,0,0-1.35-.56H3.33A1.9,1.9,0,0,0,2,11.31a1.92,1.92,0,0,0-.56,1.36V14a.75.75,0,0,1-1.5,0V12.67A3.41,3.41,0,0,1,3.33,9.25H8.67a3.44,3.44,0,0,1,2.41,1,3.38,3.38,0,0,1,1,2.42V14A.75.75,0,0,1,11.33,14.75Z" transform="translate(0.08 -1.25)"/>
		<path d="M6,8.08A3.42,3.42,0,1,1,9.42,4.67,3.42,3.42,0,0,1,6,8.08ZM6,2.75A1.92,1.92,0,1,0,7.92,4.67,1.92,1.92,0,0,0,6,2.75Z" transform="translate(0.08 -1.25)"/>
		<path d="M15.33,14.75a.76.76,0,0,1-.75-.75V12.67a2,2,0,0,0-.4-1.18,2,2,0,0,0-1-.68.74.74,0,0,1-.54-.91.75.75,0,0,1,.91-.54,3.46,3.46,0,0,1,1.85,1.22,3.43,3.43,0,0,1,.71,2.09V14A.75.75,0,0,1,15.33,14.75Z" transform="translate(0.08 -1.25)"/>
		<path d="M10.67,8a.75.75,0,0,1-.19-1.47,2,2,0,0,0,1-.68,1.94,1.94,0,0,0,0-2.36,2,2,0,0,0-1-.68.75.75,0,1,1,.37-1.45A3.43,3.43,0,0,1,12.7,2.58a3.37,3.37,0,0,1,.72,2.09,3.42,3.42,0,0,1-.72,2.1A3.47,3.47,0,0,1,10.85,8,.55.55,0,0,1,10.67,8Z" transform="translate(0.08 -1.25)" fill="#fff"/>
	</symbol>

	<symbol id="info" viewBox="0 0 14.83 14.83">
		<path d="M8,15.42A7.42,7.42,0,1,1,15.42,8,7.43,7.43,0,0,1,8,15.42ZM8,2.08A5.92,5.92,0,1,0,13.92,8,5.93,5.93,0,0,0,8,2.08Z" transform="translate(-0.58 -0.58)"/>
		<path d="M8,11.42a.76.76,0,0,1-.75-.75V8a.75.75,0,0,1,1.5,0v2.67A.76.76,0,0,1,8,11.42Z" transform="translate(-0.58 -0.58)"/>
		<path d="M8,6.08a.75.75,0,1,1,0-1.5H8a.75.75,0,0,1,0,1.5Z" transform="translate(-0.58 -0.58)"/>
	</symbol>

  </defs>
</svg>