<?xml version="1.0" encoding="utf-8"?>
<svg xmlns="http://www.w3.org/2000/svg">
  <defs>

	<symbol id="logo" viewBox="0 0 30.09 32.79">
    	<path d="M18.5,34.89a5.85,5.85,0,0,1-2.9-.71L7.12,29.29C3.67,27,3.45,26.61,3.45,23V14c0-3.65.2-4,3.6-6.3l8.54-4.93a6.28,6.28,0,0,1,5.78,0l8.51,4.9C33.33,10,33.55,10.39,33.55,14v8.9c0,3.65-.2,4-3.6,6.31l-8.54,4.93A5.92,5.92,0,0,1,18.5,34.89Zm0-30.47a3.57,3.57,0,0,0-1.73.39L8.29,9.71c-2.51,1.7-2.51,1.7-2.51,4.33v8.9c0,2.64,0,2.64,2.58,4.38l8.41,4.85a4,4,0,0,0,3.47,0l8.48-4.9c2.5-1.69,2.5-1.69,2.5-4.33V14c0-2.63,0-2.63-2.58-4.37L20.23,4.81A3.57,3.57,0,0,0,18.5,4.42Z" transform="translate(-3.45 -2.1)"/>
    	<path d="M18.5,24.28a5.78,5.78,0,1,1,5.78-5.78A5.78,5.78,0,0,1,18.5,24.28Zm0-9.25A3.47,3.47,0,1,0,22,18.5,3.48,3.48,0,0,0,18.5,15Z" transform="translate(-3.45 -2.1)"/>
	</symbol>

	<symbol id="key-square" viewBox="0 0 21.5 21.5">
    	<path d="M15,22.75H9c-5.43,0-7.75-2.32-7.75-7.75V9C1.25,3.57,3.57,1.25,9,1.25h6c5.43,0,7.75,2.32,7.75,7.75v6C22.75,20.43,20.43,22.75,15,22.75Zm-6-20C4.39,2.75,2.75,4.39,2.75,9v6c0,4.61,1.64,6.25,6.25,6.25h6c4.61,0,6.25-1.64,6.25-6.25V9c0-4.61-1.64-6.25-6.25-6.25Z" transform="translate(-1.25 -1.25)"/>
    	<path d="M8.8,18.25l-.22,0-1.19-.16a1.75,1.75,0,0,1-1.46-1.45l-.16-1.21A1.87,1.87,0,0,1,6.24,14l2.29-2.29A4.91,4.91,0,0,1,16.81,7.2a4.83,4.83,0,0,1,1.44,3.46,4.89,4.89,0,0,1-1.44,3.48h0a4.86,4.86,0,0,1-4.48,1.33L10,17.75A1.79,1.79,0,0,1,8.8,18.25Zm4.53-11a3.39,3.39,0,0,0-3.25,4.42.75.75,0,0,1-.19.75L7.31,15a.47.47,0,0,0-.06.19l.16,1.2a.33.33,0,0,0,.17.18l1.21.16A.39.39,0,0,0,9,16.69l2.59-2.58a.76.76,0,0,1,.76-.19,3.36,3.36,0,0,0,3.42-.84,3.42,3.42,0,0,0,1-2.42,3.37,3.37,0,0,0-1-2.4A3.43,3.43,0,0,0,13.33,7.27Zm3,6.34h0Z" transform="translate(-1.25 -1.25)"/>
    	<path d="M10.45,17a.73.73,0,0,1-.53-.22L9.07,16a.75.75,0,0,1,0-1.06.75.75,0,0,1,1.06,0l.85.86a.75.75,0,0,1,0,1.06A.74.74,0,0,1,10.45,17Z" transform="translate(-1.25 -1.25)"/>
    	<path d="M13.4,11.7a1,1,0,0,1,0-2h0a1,1,0,1,1,0,2Z" transform="translate(-1.25 -1.25)"/>
	</symbol>

	<symbol id="3d-square" viewBox="0 0 21.5 21.5">
    	<path d="M15,22.75H9c-5.43,0-7.75-2.32-7.75-7.75V9C1.25,3.57,3.57,1.25,9,1.25h6c5.43,0,7.75,2.32,7.75,7.75v6C22.75,20.43,20.43,22.75,15,22.75Zm-6-20C4.39,2.75,2.75,4.39,2.75,9v6c0,4.61,1.64,6.25,6.25,6.25h6c4.61,0,6.25-1.64,6.25-6.25V9c0-4.61-1.64-6.25-6.25-6.25Z" transform="translate(-1.25 -1.25)"/>
    	<path d="M12,13.08a.75.75,0,0,1-.38-.1L6.32,9.92a.75.75,0,1,1,.75-1.29L12,11.48l4.89-2.83a.75.75,0,0,1,1,.27.76.76,0,0,1-.27,1l-5.26,3A.79.79,0,0,1,12,13.08Z" transform="translate(-1.25 -1.25)"/>
    	<path d="M12,18.52a.76.76,0,0,1-.75-.75V12.33a.75.75,0,1,1,1.5,0v5.44A.76.76,0,0,1,12,18.52Z" transform="translate(-1.25 -1.25)"/>
    	<path d="M12,18.75a3.42,3.42,0,0,1-1.61-.38l-3.2-1.78a3.58,3.58,0,0,1-1.7-2.9V10.3a3.64,3.64,0,0,1,1.7-2.9l3.2-1.78a3.58,3.58,0,0,1,3.22,0l3.2,1.78a3.58,3.58,0,0,1,1.7,2.9v3.39a3.64,3.64,0,0,1-1.7,2.9l-3.2,1.78A3.3,3.3,0,0,1,12,18.75Zm0-12a1.84,1.84,0,0,0-.88.19L7.92,8.72A2.09,2.09,0,0,0,7,10.3v3.39a2.07,2.07,0,0,0,.93,1.58l3.2,1.78a2.08,2.08,0,0,0,1.76,0l3.2-1.78A2.09,2.09,0,0,0,17,13.69V10.3a2.07,2.07,0,0,0-.93-1.58l-3.2-1.78A1.84,1.84,0,0,0,12,6.75Z" transform="translate(-1.25 -1.25)"/>
	</symbol>

	<symbol id="user-square" viewBox="0 0 21.5 21.5">
		<path d="M15,22.75H9a11.66,11.66,0,0,1-3.35-.41.77.77,0,0,1-.54-.78c.25-3,3.28-5.34,6.89-5.34s6.63,2.34,6.89,5.34a.74.74,0,0,1-.54.78A11.66,11.66,0,0,1,15,22.75ZM6.72,21.06A11.85,11.85,0,0,0,9,21.25h6a11.85,11.85,0,0,0,2.28-.19c-.53-1.92-2.72-3.34-5.28-3.34S7.25,19.14,6.72,21.06Z" transform="translate(-1.25 -1.25)"/>
		<path d="M5.86,22.37a.64.64,0,0,1-.2,0c-3-.85-4.41-3.18-4.41-7.34V9C1.25,3.57,3.57,1.25,9,1.25h6c5.43,0,7.75,2.32,7.75,7.75v6c0,4.16-1.4,6.49-4.41,7.34a.78.78,0,0,1-.63-.1.77.77,0,0,1-.32-.56c-.19-2.22-2.55-4-5.39-4s-5.2,1.74-5.39,4a.77.77,0,0,1-.32.56A.83.83,0,0,1,5.86,22.37ZM12,16.22c3.22,0,6,1.87,6.71,4.39,1.77-.82,2.54-2.55,2.54-5.61V9c0-4.61-1.64-6.25-6.25-6.25H9C4.39,2.75,2.75,4.39,2.75,9v6c0,3.06.77,4.79,2.54,5.61C6,18.09,8.78,16.22,12,16.22Zm0-1.3a4.34,4.34,0,1,1,4.33-4.34A4.34,4.34,0,0,1,12,14.92Zm0-7.17a2.84,2.84,0,1,0,2.83,2.83A2.83,2.83,0,0,0,12,7.75Z" transform="translate(-1.25 -1.25)"/>
		<path d="M12,14.92a4.34,4.34,0,1,1,4.33-4.34A4.34,4.34,0,0,1,12,14.92Zm0-7.17a2.84,2.84,0,1,0,2.83,2.83A2.83,2.83,0,0,0,12,7.75Z" transform="translate(-1.25 -1.25)"/>
	</symbol>

	<symbol id="wallet-money" viewBox="0 0 21.5 20">
    	<path d="M7.18,22.75a4.12,4.12,0,0,1-4.33-3.86v-2a.75.75,0,0,1,1.5,0c0,1.25,1.22,2.19,2.83,2.19S10,18.11,10,16.86a.75.75,0,0,1,1.5,0v2A4.11,4.11,0,0,1,7.18,22.75ZM4.6,19.87a2.93,2.93,0,0,0,2.58,1.38,2.91,2.91,0,0,0,2.57-1.38,4.94,4.94,0,0,1-2.57.68A5,5,0,0,1,4.6,19.87Z" transform="translate(-1.25 -2.75)"/>
    	<path d="M7.17,17.8a4.46,4.46,0,0,1-3.84-1.94,3.4,3.4,0,0,1-.49-1.75,3.62,3.62,0,0,1,1.3-2.75,4.83,4.83,0,0,1,6,0,3.6,3.6,0,0,1,1.32,2.76A3.4,3.4,0,0,1,11,15.86,4.43,4.43,0,0,1,7.17,17.8Zm0-6a3.13,3.13,0,0,0-2,.72,2.19,2.19,0,0,0-.78,1.63,1.84,1.84,0,0,0,.27,1A3,3,0,0,0,7.17,16.3a3,3,0,0,0,2.56-1.22,1.87,1.87,0,0,0,.27-1,2.07,2.07,0,0,0-.79-1.61A3.11,3.11,0,0,0,7.16,11.76Z" transform="translate(-1.25 -2.75)"/>
    	<path d="M7.18,20.55c-2.43,0-4.33-1.62-4.33-3.69V14.11a4.12,4.12,0,0,1,4.33-3.86,4.64,4.64,0,0,1,3,1.09,3.66,3.66,0,0,1,1.3,2.77v2.75C11.5,19,9.64,20.55,7.18,20.55Zm0-8.8a2.63,2.63,0,0,0-2.83,2.36v2.75c0,1.25,1.22,2.19,2.83,2.19S10,18.11,10,16.86V14.11a2.21,2.21,0,0,0-.78-1.64A3.15,3.15,0,0,0,7.18,11.75Z" transform="translate(-1.25 -2.75)"/>
    	<path d="M19,14.8a2.88,2.88,0,0,1-2.91-2.56A2.73,2.73,0,0,1,17,10a2.69,2.69,0,0,1,2-.81H21A1.78,1.78,0,0,1,22.75,11V13A1.77,1.77,0,0,1,21,14.8ZM21,10.7h-2a1.23,1.23,0,0,0-.9.37,1.27,1.27,0,0,0-.39,1A1.39,1.39,0,0,0,19,13.3h2a.27.27,0,0,0,.25-.27V11A.27.27,0,0,0,21,10.7Z" transform="translate(-1.25 -2.75)"/>
    	<path d="M16,21.25H13.5a.75.75,0,0,1,0-1.5H16a4,4,0,0,0,4.25-4.25v-.7H19a2.88,2.88,0,0,1-2.91-2.56A2.73,2.73,0,0,1,17,10a2.69,2.69,0,0,1,2-.81h1.33V8.5a3.93,3.93,0,0,0-3.59-4.21,5,5,0,0,0-.66,0H7a5.36,5.36,0,0,0-.7,0A3.93,3.93,0,0,0,2.75,8.5v2a.75.75,0,0,1-1.5,0v-2A5.39,5.39,0,0,1,6.1,2.82,5.06,5.06,0,0,1,7,2.75h9a5.69,5.69,0,0,1,.87.06A5.39,5.39,0,0,1,21.75,8.5V10a.76.76,0,0,1-.75.75H18.92a1.23,1.23,0,0,0-.9.37,1.27,1.27,0,0,0-.39,1A1.39,1.39,0,0,0,19,13.3h2a.76.76,0,0,1,.75.75V15.5A5.44,5.44,0,0,1,16,21.25Z" transform="translate(-1.25 -2.75)"/>
	</symbol>

	<symbol id="discount-shape" viewBox="0 0 21.5 21.47">
    	<path d="M12,22.75a2.3,2.3,0,0,1-1.66-.69L8.82,20.54a1.14,1.14,0,0,0-.6-.25H6.06a2.35,2.35,0,0,1-2.35-2.35V15.78a1.14,1.14,0,0,0-.25-.6L1.94,13.66A2.34,2.34,0,0,1,1.25,12a2.3,2.3,0,0,1,.69-1.66L3.46,8.82a1.14,1.14,0,0,0,.25-.6V6.06A2.35,2.35,0,0,1,6.06,3.71H8.22a1.14,1.14,0,0,0,.6-.25l1.52-1.52a2.42,2.42,0,0,1,3.32,0l1.52,1.52a1.14,1.14,0,0,0,.6.25h2.16a2.35,2.35,0,0,1,2.35,2.35V8.22a1.14,1.14,0,0,0,.25.6l1.52,1.52A2.34,2.34,0,0,1,22.75,12a2.3,2.3,0,0,1-.69,1.66l-1.52,1.52a1.14,1.14,0,0,0-.25.6v2.16a2.35,2.35,0,0,1-2.35,2.35H15.78a1.14,1.14,0,0,0-.6.25l-1.52,1.52A2.3,2.3,0,0,1,12,22.75ZM4.52,14.12a2.58,2.58,0,0,1,.69,1.66v2.16a.85.85,0,0,0,.85.85H8.22a2.58,2.58,0,0,1,1.66.69L11.4,21a.87.87,0,0,0,1.2,0l1.52-1.52a2.58,2.58,0,0,1,1.66-.69h2.16a.85.85,0,0,0,.85-.85V15.78a2.58,2.58,0,0,1,.69-1.66L21,12.6a.85.85,0,0,0,0-1.2L19.48,9.88a2.58,2.58,0,0,1-.69-1.66V6.06a.85.85,0,0,0-.85-.85H15.78a2.58,2.58,0,0,1-1.66-.69L12.6,3a.87.87,0,0,0-1.2,0L9.88,4.52a2.58,2.58,0,0,1-1.66.69H6.06a.85.85,0,0,0-.85.85V8.22a2.58,2.58,0,0,1-.69,1.66L3,11.4a.85.85,0,0,0,0,1.2Z" transform="translate(-1.25 -1.28)"/>
    	<path d="M15,16a1,1,0,1,1,1-1A1,1,0,0,1,15,16Z" transform="translate(-1.25 -1.28)"/>
    	<path d="M9,10a1,1,0,1,1,1-1A1,1,0,0,1,9,10Z" transform="translate(-1.25 -1.28)"/>
    	<path d="M9,15.75a.74.74,0,0,1-.53-.22.75.75,0,0,1,0-1.06l6-6a.75.75,0,0,1,1.06,1.06l-6,6A.74.74,0,0,1,9,15.75Z" transform="translate(-1.25 -1.28)"/>
	</symbol>

	<symbol id="message-question" viewBox="0 0 21.5 20.63">
		<path d="M8,22.32a1.76,1.76,0,0,1-.83-.21,1.74,1.74,0,0,1-.92-1.54V19.15a5.39,5.39,0,0,1-5-5.71v-6A5.44,5.44,0,0,1,7,1.69H17a5.44,5.44,0,0,1,5.75,5.75v6A5.44,5.44,0,0,1,17,19.19H13.23L9,22A1.78,1.78,0,0,1,8,22.32ZM7,3.18A4,4,0,0,0,2.75,7.43v6A4,4,0,0,0,7,17.68a.76.76,0,0,1,.75.75v2.13a.25.25,0,0,0,.39.21l4.45-3a.77.77,0,0,1,.42-.13h4a4,4,0,0,0,4.25-4.25v-6A4,4,0,0,0,17,3.18Z" transform="translate(-1.25 -1.69)"/>
		<path d="M12,12.11a.76.76,0,0,1-.75-.75v-.21a2.33,2.33,0,0,1,1.17-2c.37-.25.49-.42.49-.68a.91.91,0,0,0-1.82,0,.75.75,0,0,1-1.5,0,2.41,2.41,0,0,1,4.82,0,2.29,2.29,0,0,1-1.15,1.92c-.39.26-.51.43-.51.71v.21A.75.75,0,0,1,12,12.11Z" transform="translate(-1.25 -1.69)"/>
		<path d="M12,14.6a.75.75,0,1,1,.75-.75A.75.75,0,0,1,12,14.6Z" transform="translate(-1.25 -1.69)"/>
	</symbol>

	<symbol id="chevron-right" viewBox="0 0 6 10">
    	<path d="M6,13a1,1,0,0,1-.71-.29,1,1,0,0,1,0-1.42L8.59,8,5.29,4.71A1,1,0,0,1,6.71,3.29l4,4a1,1,0,0,1,0,1.42l-4,4A1,1,0,0,1,6,13Z" transform="translate(-5 -3)"/>
	</symbol>

	<symbol id="search" viewBox="0 0 20 20">
  		<path d="M11,20a9,9,0,1,1,9-9A9,9,0,0,1,11,20ZM11,4a7,7,0,1,0,7,7A7,7,0,0,0,11,4Z" transform="translate(-2 -2)"/>
		<path d="M21,22a1,1,0,0,1-.71-.29l-4.35-4.35a1,1,0,1,1,1.42-1.42l4.35,4.35a1,1,0,0,1,0,1.42A1,1,0,0,1,21,22Z" transform="translate(-2 -2)"/>
	</symbol>

  </defs>
</svg>