<svg width="357" height="45" viewBox="0 0 357 45" fill="none" xmlns="http://www.w3.org/2000/svg">
<g opacity="0.5">
<rect x="3.5" y="35.5" width="12.5" height="12.5" transform="rotate(90 3.5 35.5)" fill="white"/>
<rect x="3.5" y="35.5" width="12.5" height="6.25" transform="rotate(90 3.5 35.5)" fill="white"/>
<rect width="12.5" height="12.5" transform="matrix(4.37114e-08 1 1 -4.37114e-08 -9 23)" fill="#FF9E66"/>
<rect width="12.5" height="12.5" transform="matrix(-4.37114e-08 -1 -1 4.37114e-08 3.5 23)" fill="#FFBE99"/>
<rect x="-9" y="10.5" width="12.5" height="12.5" transform="rotate(-90 -9 10.5)" fill="#FF9E66"/>
<path d="M-9 10.5C-7.35847 10.5 -5.73303 10.1767 -4.21645 9.54849C-2.69989 8.92031 -1.3219 7.99957 -0.161164 6.83883C0.999568 5.6781 1.92031 4.30011 2.54849 2.78354C3.17668 1.26697 3.5 -0.358477 3.5 -2L-9 -2L-9 10.5Z" fill="#FFBE99"/>
<rect x="16" y="35.5" width="12.5" height="12.5" transform="rotate(90 16 35.5)" fill="white"/>
<rect width="12.5" height="12.5" transform="matrix(4.37114e-08 1 1 -4.37114e-08 3.5 23)" fill="white"/>
<path d="M3.5 35.5C5.14153 35.5 6.76697 35.1767 8.28355 34.5485C9.80011 33.9203 11.1781 32.9996 12.3388 31.8388C13.4996 30.6781 14.4203 29.3001 15.0485 27.7835C15.6767 26.267 16 24.6415 16 23L3.5 23L3.5 35.5Z" fill="#FF9E66"/>
<rect width="12.5" height="12.5" transform="matrix(-4.37114e-08 -1 -1 4.37114e-08 16 23)" fill="#FF9E66"/>
<path d="M3.5 10.5C5.14152 10.5 6.76697 10.8233 8.28354 11.4515C9.80011 12.0797 11.1781 13.0004 12.3388 14.1612C13.4996 15.3219 14.4203 16.6999 15.0485 18.2165C15.6767 19.733 16 21.3585 16 23L3.5 23L3.5 10.5Z" fill="#FFBE99"/>
<rect x="3.5" y="10.5" width="12.5" height="12.5" transform="rotate(-90 3.5 10.5)" fill="#FF9E66"/>
<rect x="9.75" y="10.5" width="12.5" height="6.25" transform="rotate(-90 9.75 10.5)" fill="white"/>
<path d="M3.5 4.25C3.5 0.79822 6.29822 -2 9.75 -2L9.75 10.5C6.29822 10.5 3.5 7.70178 3.5 4.25Z" fill="white"/>
<rect x="28.5" y="35.5" width="12.5" height="12.5" transform="rotate(90 28.5 35.5)" fill="white"/>
<rect x="28.5" y="35.5" width="12.5" height="6.25" transform="rotate(90 28.5 35.5)" fill="#FFBE99"/>
<path d="M16 41.75C16 45.2018 18.7982 48 22.25 48L22.25 35.5C18.7982 35.5 16 38.2982 16 41.75Z" fill="#FFBE99"/>
<rect width="12.5" height="12.5" transform="matrix(4.37114e-08 1 1 -4.37114e-08 16 23)" fill="white"/>
<path d="M28.5 35.5C26.8585 35.5 25.233 35.1767 23.7165 34.5485C22.1999 33.9203 20.8219 32.9996 19.6612 31.8388C18.5004 30.6781 17.5797 29.3001 16.9515 27.7835C16.3233 26.267 16 24.6415 16 23L28.5 23L28.5 35.5Z" fill="#FF9E66"/>
<rect width="12.5" height="12.5" transform="matrix(-4.37114e-08 -1 -1 4.37114e-08 28.5 23)" fill="#FF9E66"/>
<rect x="16" y="10.5" width="12.5" height="12.5" transform="rotate(-90 16 10.5)" fill="white"/>
<rect x="41" y="35.5" width="12.5" height="12.5" transform="rotate(90 41 35.5)" fill="url(#paint0_linear_2297_36)"/>
<rect width="12.5" height="12.5" transform="matrix(4.37114e-08 1 1 -4.37114e-08 28.5 23)" fill="url(#paint1_linear_2297_36)"/>
<rect width="12.5" height="12.5" transform="matrix(-4.37114e-08 -1 -1 4.37114e-08 41 23)" fill="url(#paint2_linear_2297_36)"/>
<rect width="12.5" height="6.25" transform="matrix(-4.37114e-08 -1 -1 4.37114e-08 41 23)" fill="url(#paint3_linear_2297_36)"/>
<path d="M28.5 16.75C28.5 20.2018 31.2982 23 34.75 23L34.75 10.5C31.2982 10.5 28.5 13.2982 28.5 16.75Z" fill="#FFBE99"/>
<rect x="28.5" y="10.5" width="12.5" height="12.5" transform="rotate(-90 28.5 10.5)" fill="url(#paint4_linear_2297_36)"/>
<rect x="28.5" y="10.5" width="12.5" height="6.25" transform="rotate(-90 28.5 10.5)" fill="white"/>
<path d="M39.1025 5.19856C39.1025 2.27071 36.729 -0.102783 33.8012 -0.102783L33.8012 10.4999C36.729 10.4999 39.1025 8.1264 39.1025 5.19856Z" fill="url(#paint5_linear_2297_36)"/>
</g>
<g opacity="0.5">
<rect width="12.5" height="12.5" transform="matrix(-4.37114e-08 1 1 4.37114e-08 344.5 35.5)" fill="white"/>
<rect width="12.5" height="6.25" transform="matrix(-4.37114e-08 1 1 4.37114e-08 344.5 35.5)" fill="white"/>
<path d="M357 41.75C357 45.2018 354.202 48 350.75 48L350.75 35.5C354.202 35.5 357 38.2982 357 41.75Z" fill="white"/>
<rect x="357" y="23" width="12.5" height="12.5" transform="rotate(90 357 23)" fill="#FF9E66"/>
<rect x="344.5" y="23" width="12.5" height="12.5" transform="rotate(-90 344.5 23)" fill="#FFBE99"/>
<rect width="12.5" height="12.5" transform="matrix(4.37114e-08 -1 -1 -4.37114e-08 357 10.5)" fill="#FF9E66"/>
<path d="M357 10.5C355.358 10.5 353.733 10.1767 352.216 9.54849C350.7 8.92031 349.322 7.99957 348.161 6.83883C347 5.6781 346.08 4.30011 345.452 2.78354C344.823 1.26697 344.5 -0.358477 344.5 -2L357 -2L357 10.5Z" fill="#FFBE99"/>
<rect width="12.5" height="12.5" transform="matrix(-4.37114e-08 1 1 4.37114e-08 332 35.5)" fill="white"/>
<rect x="344.5" y="23" width="12.5" height="12.5" transform="rotate(90 344.5 23)" fill="white"/>
<path d="M344.5 35.5C342.858 35.5 341.233 35.1767 339.716 34.5485C338.2 33.9203 336.822 32.9996 335.661 31.8388C334.5 30.6781 333.58 29.3001 332.952 27.7835C332.323 26.267 332 24.6415 332 23L344.5 23L344.5 35.5Z" fill="#FF9E66"/>
<rect x="332" y="23" width="12.5" height="12.5" transform="rotate(-90 332 23)" fill="#FF9E66"/>
<path d="M344.5 10.5C342.858 10.5 341.233 10.8233 339.716 11.4515C338.2 12.0797 336.822 13.0004 335.661 14.1612C334.5 15.3219 333.58 16.6999 332.952 18.2165C332.323 19.733 332 21.3585 332 23L344.5 23L344.5 10.5Z" fill="#FFBE99"/>
<rect width="12.5" height="12.5" transform="matrix(4.37114e-08 -1 -1 -4.37114e-08 344.5 10.5)" fill="#FF9E66"/>
<rect width="12.5" height="6.25" transform="matrix(4.37114e-08 -1 -1 -4.37114e-08 338.25 10.5)" fill="white"/>
<path d="M344.5 4.25C344.5 0.79822 341.702 -2 338.25 -2L338.25 10.5C341.702 10.5 344.5 7.70178 344.5 4.25Z" fill="white"/>
<rect width="12.5" height="12.5" transform="matrix(-4.37114e-08 1 1 4.37114e-08 319.5 35.5)" fill="white"/>
<rect width="12.5" height="6.25" transform="matrix(-4.37114e-08 1 1 4.37114e-08 319.5 35.5)" fill="#FFBE99"/>
<path d="M332 41.75C332 45.2018 329.202 48 325.75 48L325.75 35.5C329.202 35.5 332 38.2982 332 41.75Z" fill="#FFBE99"/>
<rect x="332" y="23" width="12.5" height="12.5" transform="rotate(90 332 23)" fill="white"/>
<path d="M319.5 35.5C321.142 35.5 322.767 35.1767 324.284 34.5485C325.8 33.9203 327.178 32.9996 328.339 31.8388C329.5 30.6781 330.42 29.3001 331.048 27.7835C331.677 26.267 332 24.6415 332 23L319.5 23L319.5 35.5Z" fill="#FF9E66"/>
<rect x="319.5" y="23" width="12.5" height="12.5" transform="rotate(-90 319.5 23)" fill="#FF9E66"/>
<rect width="12.5" height="12.5" transform="matrix(4.37114e-08 -1 -1 -4.37114e-08 332 10.5)" fill="white"/>
<rect width="12.5" height="12.5" transform="matrix(-4.37114e-08 1 1 4.37114e-08 307 35.5)" fill="url(#paint6_linear_2297_36)"/>
<rect x="319.5" y="23" width="12.5" height="12.5" transform="rotate(90 319.5 23)" fill="url(#paint7_linear_2297_36)"/>
<rect x="307" y="23" width="12.5" height="12.5" transform="rotate(-90 307 23)" fill="url(#paint8_linear_2297_36)"/>
<rect x="307" y="23" width="12.5" height="6.25" transform="rotate(-90 307 23)" fill="url(#paint9_linear_2297_36)"/>
<path d="M319.5 16.75C319.5 20.2018 316.702 23 313.25 23L313.25 10.5C316.702 10.5 319.5 13.2982 319.5 16.75Z" fill="#FFBE99"/>
<rect width="12.5" height="12.5" transform="matrix(4.37114e-08 -1 -1 -4.37114e-08 319.5 10.5)" fill="url(#paint10_linear_2297_36)"/>
<rect width="12.5" height="6.25" transform="matrix(4.37114e-08 -1 -1 -4.37114e-08 319.5 10.5)" fill="white"/>
<path d="M308.897 5.19856C308.897 2.27071 311.271 -0.102783 314.199 -0.102783L314.199 10.4999C311.271 10.4999 308.897 8.1264 308.897 5.19856Z" fill="url(#paint11_linear_2297_36)"/>
</g>
<g opacity="0.9">
<path d="M14.769 20.6362C14.8072 20.6498 14.8481 20.6635 14.8889 20.6798C15.1778 20.7779 15.5375 20.8896 15.8128 20.9741C16.0989 21.0559 16.4832 21.1458 16.772 21.2139C13.014 20.2956 9.80655 18.2381 7.24219 15.0933L7.96435 15.9844C8.05428 16.0852 8.13331 16.1751 8.20961 16.2569C8.47668 16.5349 8.79279 16.8564 9.11436 17.1671C9.3133 17.3497 9.56129 17.5677 9.90465 17.8729C10.0818 18.0146 10.2889 18.1727 10.5015 18.3307C12.3246 19.6742 13.57 20.1702 14.7718 20.6389L14.769 20.6362Z" fill="#262626"/>
<path d="M5.09689 11.2618C8.08364 18.3145 15.5642 21.0151 18.2076 21.4593C18.2212 21.4593 18.2321 21.462 18.2457 21.4648C18.3847 21.4811 18.5591 21.5002 18.6954 21.5138L18.9733 21.5384C18.9733 21.5384 18.9842 21.5384 18.9869 21.5384C17.4282 21.3939 6.70745 18.23 4.29297 8.49854C4.32022 8.64297 4.34475 8.78467 4.372 8.91548C4.55186 9.59404 4.8271 10.4824 5.05873 11.1583C5.07236 11.1937 5.08599 11.2264 5.09689 11.2618Z" fill="#262626"/>
<path d="M19.9246 21.5873C19.9873 21.5873 20.0472 21.5901 20.1099 21.5901H20.1372C20.1372 21.5901 20.159 21.5901 20.1671 21.5901C20.238 21.5901 20.3061 21.5901 20.377 21.5901C20.4369 21.5901 20.4969 21.5901 20.5487 21.5901C20.5514 21.5901 20.5541 21.5901 20.5568 21.5901C19.3196 21.5683 1.61708 14.859 4.47849 1.22778C4.47849 1.22778 4.47849 1.22778 4.47849 1.2305C4.38038 1.61475 4.285 2.13253 4.20325 2.5195C4.12422 3.01548 4.05881 3.68314 4.00431 4.18184C3.71272 16.4096 18.3059 21.432 19.9246 21.5873Z" fill="#262626"/>
<path d="M6.07053 -2.71294C-1.12112 11.1526 19.0231 20.9413 21.4322 21.549C21.4485 21.549 21.4649 21.549 21.4812 21.5463L21.5875 21.5381C21.6039 21.5381 21.6202 21.5354 21.6393 21.5327C21.7619 21.5218 21.9091 21.5054 22.0344 21.4945C22.0508 21.4945 22.0671 21.4918 22.0808 21.4891C19.2275 19.3199 15.7557 18.1371 13.006 15.8044C11.6598 14.6626 8.50681 11.9892 6.66461 8.41383C2.97749 1.26032 6.25856 -3.30157 7.86912 -5.26367C7.8119 -5.19827 7.75739 -5.13287 7.70289 -5.07019L7.43038 -4.7459C7.00525 -4.15999 6.4684 -3.35607 6.08416 -2.73747C6.07871 -2.72929 6.07598 -2.72112 6.07053 -2.71294Z" fill="#262626"/>
<path d="M16.5213 -10.5614C16.5213 -10.5614 16.5404 -10.5668 16.5513 -10.5696C16.5268 -10.5641 16.4968 -10.5587 16.475 -10.5532C16.2952 -10.5123 16.0608 -10.4496 15.8837 -10.4006C15.5185 -10.2998 15.0361 -10.1499 14.6819 -10.0163C14.4639 -9.93459 14.175 -9.82559 13.9624 -9.73566C13.7063 -9.62665 13.3711 -9.46859 13.1176 -9.35141C12.8588 -9.2315 12.5236 -9.05437 12.2783 -8.90994C11.9894 -8.74098 11.6324 -8.52025 11.3163 -8.31586C8.05977 -6.07579 5.48996 -2.48133 5.84423 1.57096C6.68357 11.1308 17.5106 17.6875 21.5847 20.1564C22.5257 20.7269 23.0235 21.123 23.078 21.3446C23.078 21.3446 23.0971 21.3419 23.1053 21.3392C23.3288 21.2983 23.6094 21.2383 23.8329 21.192C23.8411 21.192 23.8493 21.1893 23.8574 21.1865C23.9365 21.1593 23.9937 21.0448 24.0482 20.9794C23.8629 20.6224 23.5004 20.3663 21.5411 19.0827C16.4995 15.7799 11.4253 11.981 8.46309 6.59885C1.77832 -5.55256 14.7418 -11.8395 20.2957 -10.3597C19.2192 -10.7767 17.9084 -10.823 16.5241 -10.5641L16.5213 -10.5614Z" fill="#262626"/>
<path d="M22.156 17.7258C25.2245 19.895 25.9549 20.4101 24.9847 20.8897C24.9956 20.887 25.0065 20.8842 25.0147 20.8815C25.1646 20.8352 25.3335 20.778 25.4998 20.7235C25.6142 20.6853 25.7259 20.6444 25.8377 20.6036C27.2111 19.9659 26.0148 19.0829 23.1534 16.9764C19.9895 14.6464 16.049 11.7468 12.7079 7.50651C2.84291 -5.0128 13.3729 -11.2098 20.2893 -10.3568C12.43 -12.06 -4.48228 -1.09404 22.1533 17.7258H22.156Z" fill="#262626"/>
<path d="M23.9606 15.2894C27.5387 18.0337 28.8795 19.061 27.1027 20.0857C27.1163 20.0802 27.1299 20.0721 27.1435 20.0666C27.4406 19.9249 27.8112 19.7287 28.0973 19.5843C29.4817 18.7749 28.9285 17.8347 28.1246 16.9409C24.759 13.1993 20.2898 10.7194 16.8425 7.07041C5.74844 -4.67496 13.1908 -10.5177 20.2925 -10.3542C13.0545 -11.0136 0.131915 -2.97993 23.9606 15.2922V15.2894Z" fill="#262626"/>
<path d="M26.727 13.0196C30.1362 15.7502 31.3516 17.219 29.5312 18.6961C29.8419 18.4781 30.237 18.1674 30.5477 17.9303C30.703 17.8022 30.8665 17.6632 31.0218 17.5242C32.4362 16.2298 31.6432 15.5294 22.127 7.1469C8.33229 -5.00179 14.5483 -9.29117 19.0448 -10.1877C14.968 -9.42743 3.59872 -5.5114 26.727 13.0196Z" fill="#262626"/>
<path d="M26.092 7.67282C31.7467 12.2238 33.8696 14.3058 32.0301 16.5677C32.0437 16.5541 32.0546 16.5432 32.0655 16.5295C32.3544 16.2189 32.7032 15.8074 32.9757 15.494C32.9812 15.4858 32.9866 15.4804 32.9921 15.4722C34.6026 13.3629 33.0629 11.1419 26.4245 5.98323C9.10346 -7.47353 18.279 -9.98611 20.2956 -10.354C18.8268 -10.1687 6.51185 -8.08396 26.0947 7.67282H26.092Z" fill="#262626"/>
<path d="M27.2603 4.03175C33.6589 8.81165 35.4194 11.2561 34.223 13.7006C34.2721 13.6188 34.3184 13.5398 34.3647 13.4607L34.4083 13.3844C34.441 13.3272 34.471 13.2754 34.501 13.2237L34.8662 12.5206C34.9098 12.4306 34.9534 12.3407 34.997 12.2535C36.4249 8.97789 31.0128 5.03733 27.4211 2.42391C15.7166 -6.09216 17.0846 -9.22335 20.2921 -10.3516C17.5533 -9.63757 12.7462 -6.80342 27.2603 4.0372V4.03175Z" fill="#262626"/>
<path d="M27.5709 0.320179C33.1575 4.25529 36.504 6.88777 35.8091 10.1716C35.8418 10.0598 35.8772 9.94812 35.9072 9.83911C36.0189 9.43034 36.1306 8.96979 36.2206 8.6019C36.7002 5.329 33.321 2.83276 27.7699 -0.963362C24.1018 -3.47322 17.2754 -8.14412 20.2921 -10.3569C15.5612 -8.14139 24.6005 -1.77273 27.5709 0.320179Z" fill="#262626"/>
<path d="M27.9828 -2.57372C34.2779 1.51127 36.4171 3.36437 36.5316 6.17672C36.5343 6.12222 36.5398 6.06498 36.5425 6.01048L36.5616 5.32375L36.5452 4.65881C36.5425 4.58251 36.5398 4.50892 36.5343 4.43262C36.2918 1.48129 32.3594 -0.952258 27.386 -4.02622C23.8869 -6.18726 19.9218 -8.63989 20.2952 -10.354C18.6574 -8.62081 24.2712 -4.98002 27.9855 -2.57099L27.9828 -2.57372Z" fill="#262626"/>
<path d="M27.5746 -5.18169C33.3737 -1.88971 35.5565 -0.290048 36.2514 2.12171C36.1642 1.70476 36.0225 1.17608 35.9053 0.729152C35.8781 0.636497 35.8508 0.546574 35.8236 0.453918C34.8807 -1.99871 31.7222 -3.75916 26.2365 -6.64236C22.3586 -8.68349 21.0805 -9.48196 20.293 -10.354C20.7453 -9.05684 23.6095 -7.42993 27.5746 -5.17896V-5.18169Z" fill="#262626"/>
</g>
<g opacity="0.9">
<path d="M355.302 24.9272C355.42 24.9399 355.534 24.9525 355.652 24.9694C355.538 24.9525 355.42 24.9399 355.302 24.9272Z" fill="#262626"/>
<path d="M362.59 27.2796L361.953 26.9382C361.936 26.9297 361.915 26.9171 361.898 26.9087C361.831 26.8749 361.764 26.8412 361.696 26.8075C361.738 26.8286 361.785 26.8496 361.831 26.8707C361.73 26.8159 361.629 26.7653 361.527 26.7105L361.081 26.5082C361.119 26.5251 361.161 26.5461 361.199 26.563C360.651 26.3101 360.094 26.0825 359.521 25.8801C357.072 25.3027 354.547 25.0624 350.201 24.9907C358.256 25.387 361.022 26.5377 361.949 26.9339C362.164 27.0435 362.379 27.1574 362.59 27.2796Z" fill="#262626"/>
<path d="M356.178 24.7336C355.862 24.6577 355.546 24.5819 355.276 24.5229L355.108 24.4891C354.18 24.3416 352.338 24.6325 350.201 24.9992C350.387 24.9739 350.568 24.9528 350.753 24.9317C354.29 24.5271 355.314 24.5945 356.178 24.7378V24.7336Z" fill="#262626"/>
<path d="M353.569 24.2277C353.291 24.1898 352.945 24.1518 352.676 24.1223C352.676 24.1223 352.667 24.1223 352.663 24.1223C352.612 24.135 352.604 24.1392 350.201 24.9949C352.992 24.253 353.266 24.2488 353.641 24.2403C353.62 24.2403 353.594 24.2361 353.569 24.2319V24.2277Z" fill="#262626"/>
<path d="M351.465 24.0674C351.427 24.0548 351.381 24.0379 351.343 24.0253C351.343 24.0253 351.339 24.0253 351.335 24.0253C351.073 24.0126 350.913 24.0084 350.896 24.0084C350.749 24.0084 350.563 24 350.407 24C350.702 24.0126 350.711 24.0211 350.846 24.1939C350.79 24.3962 350.576 24.6632 350.205 24.9948C351.39 24.3372 351.427 24.2107 351.47 24.0674H351.465Z" fill="#262626"/>
<path d="M349.497 24.1938C350.07 24.4087 350.1 24.5352 350.201 24.9946C350.618 24.0546 349.75 24.0378 348.982 24.0251C348.713 24.0378 348.354 24.0631 348.089 24.0842L347.836 24.1052C348.228 24.0799 349.046 24.0251 349.497 24.1938Z" fill="#262626"/>
<path d="M349.632 74.4057C349.729 74.4057 349.822 74.4099 349.919 74.4099H349.961C349.961 74.4099 349.994 74.4099 350.007 74.4099C350.117 74.4099 350.222 74.4099 350.332 74.4099C350.424 74.4099 350.517 74.4099 350.597 74.4099C350.601 74.4099 350.606 74.4099 350.61 74.4099C348.696 74.3762 321.314 63.9983 325.74 42.9138C325.74 42.9138 325.74 42.9138 325.74 42.918C325.588 43.5124 325.441 44.3133 325.314 44.9118C325.192 45.679 325.091 46.7117 325.007 47.4831C324.556 66.3968 347.128 74.1654 349.632 74.4057Z" fill="#262626"/>
<path d="M345.506 24.4384C345.455 24.4469 345.4 24.4595 345.35 24.468C348.431 23.9411 349.717 24.6998 350.206 24.9949C349.333 24.0338 347.816 24.0506 345.51 24.4384H345.506Z" fill="#262626"/>
<path d="M328.202 36.8185C317.078 58.2655 348.237 73.4065 351.964 74.3465C351.989 74.3465 352.014 74.3465 352.039 74.3423L352.204 74.3297C352.229 74.3297 352.254 74.3255 352.284 74.3212C352.474 74.3044 352.701 74.2791 352.895 74.2622C352.92 74.2622 352.946 74.258 352.967 74.2538C348.553 70.8985 343.183 69.0691 338.93 65.4609C336.848 63.6947 331.971 59.5596 329.121 54.0292C323.418 42.9643 328.493 35.908 330.984 32.873C330.896 32.9742 330.812 33.0754 330.727 33.1723L330.306 33.6739C329.648 34.5802 328.818 35.8237 328.223 36.7805C328.215 36.7932 328.211 36.8058 328.202 36.8185Z" fill="#262626"/>
<path d="M344.368 24.6785C344.368 24.6785 344.397 24.6701 344.414 24.6658C344.376 24.6743 344.33 24.6827 344.296 24.6911C344.018 24.7544 343.655 24.8513 343.381 24.9272C342.816 25.0831 342.07 25.315 341.522 25.5215C341.185 25.648 340.738 25.8166 340.409 25.9557C340.013 26.1243 339.495 26.3688 339.103 26.55C338.702 26.7355 338.184 27.0095 337.804 27.2329C337.358 27.4943 336.805 27.8357 336.316 28.1518C331.279 31.6167 327.304 37.1766 327.852 43.4446C329.151 58.2316 345.898 68.3734 352.199 72.1924C353.655 73.0748 354.425 73.6874 354.509 74.0302C354.509 74.0302 354.539 74.026 354.552 74.0218C354.897 73.9586 355.331 73.8658 355.677 73.7942C355.69 73.7942 355.702 73.7899 355.715 73.7857C355.837 73.7436 355.926 73.5665 356.01 73.4654C355.723 72.9132 355.163 72.5169 352.132 70.5316C344.334 65.4227 336.485 59.5467 331.903 51.2217C321.563 32.4261 341.615 22.7016 350.206 24.9904C348.541 24.3455 346.513 24.2738 344.372 24.6743L344.368 24.6785Z" fill="#262626"/>
<path d="M353.084 68.4325C357.831 71.7878 358.96 72.5845 357.46 73.3264C357.477 73.3222 357.494 73.318 357.506 73.3137C357.738 73.2421 357.999 73.1536 358.257 73.0693C358.434 73.0102 358.606 72.947 358.779 72.8838C360.904 71.8974 359.053 70.5317 354.627 67.2733C349.733 63.6693 343.638 59.1843 338.47 52.6255C323.211 33.2608 339.499 23.6754 350.197 24.9947C338.04 22.3602 311.881 39.3223 353.08 68.4325H353.084Z" fill="#262626"/>
<path d="M355.875 64.664C361.409 68.9087 363.483 70.4978 360.735 72.0828C360.756 72.0743 360.777 72.0617 360.798 72.0533C361.257 71.8341 361.831 71.5306 362.273 71.3072C364.415 70.0552 363.559 68.601 362.315 67.2184C357.11 61.4309 350.197 57.5951 344.864 51.9509C327.704 33.7833 339.216 24.7459 350.201 24.9988C339.005 23.9787 319.017 36.4052 355.875 64.6682V64.664Z" fill="#262626"/>
<path d="M360.153 61.1529C365.426 65.3765 367.306 67.6485 364.49 69.9332C364.971 69.5959 365.582 69.1154 366.063 68.7487C366.303 68.5506 366.556 68.3356 366.796 68.1206C368.984 66.1184 367.757 65.0351 353.038 52.0691C331.7 33.2777 341.315 26.6429 348.27 25.2561C341.964 26.4321 324.378 32.4894 360.153 61.1529Z" fill="#262626"/>
<path d="M349.919 25.0159C349.4 25.0622 348.844 25.1423 348.267 25.2561C349.008 25.117 349.59 25.0454 349.919 25.0159Z" fill="#262626"/>
<path d="M350.2 24.9949C350.2 24.9949 350.082 25.0033 349.918 25.0159C350.011 25.0075 350.108 24.9991 350.2 24.9949Z" fill="#262626"/>
<path d="M359.171 52.8827C367.918 59.9221 371.201 63.1425 368.356 66.6411C368.377 66.62 368.394 66.6032 368.411 66.5821C368.858 66.1016 369.397 65.4651 369.819 64.9803C369.827 64.9677 369.835 64.9592 369.844 64.9466C372.335 61.684 369.954 58.2486 359.685 50.2692C332.893 29.4545 347.086 25.5681 350.205 24.999C347.933 25.2857 328.885 28.5103 359.175 52.8827H359.171Z" fill="#262626"/>
<path d="M360.98 47.2511C370.877 54.6446 373.6 58.4256 371.75 62.2066C371.826 62.0802 371.897 61.958 371.969 61.8357L372.036 61.7177C372.087 61.6292 372.133 61.5491 372.18 61.469L372.745 60.3815C372.812 60.2424 372.879 60.1033 372.947 59.9684C375.156 54.9017 366.784 48.8065 361.229 44.7641C343.124 31.5916 345.24 26.7483 350.202 25.0032C345.965 26.1076 338.53 30.4914 360.98 47.2595V47.2511Z" fill="#262626"/>
<path d="M361.46 41.5101C370.101 47.5968 375.278 51.6687 374.203 56.7481C374.253 56.5752 374.308 56.4024 374.354 56.2338C374.527 55.6015 374.7 54.8892 374.839 54.3201C375.581 49.2576 370.354 45.3965 361.768 39.5247C356.094 35.6425 345.535 28.4176 350.201 24.9949C342.884 28.4218 356.866 38.2728 361.46 41.5101Z" fill="#262626"/>
<path d="M362.097 37.0335C371.834 43.3521 375.143 46.2184 375.32 50.5685C375.324 50.4842 375.333 50.3957 375.337 50.3114L375.367 49.2491L375.341 48.2206C375.337 48.1026 375.333 47.9888 375.324 47.8708C374.949 43.3057 368.867 39.5415 361.174 34.7867C355.762 31.4441 349.628 27.6504 350.206 24.999C347.673 27.6799 356.356 33.3114 362.101 37.0377L362.097 37.0335Z" fill="#262626"/>
<path d="M361.464 32.9995C370.434 38.0915 373.811 40.5658 374.885 44.2963C374.751 43.6513 374.531 42.8336 374.35 42.1423C374.308 41.999 374.266 41.8599 374.224 41.7166C372.765 37.9229 367.88 35.1998 359.395 30.7401C353.396 27.5829 351.419 26.3479 350.201 24.999C350.901 27.0055 355.331 29.5219 361.464 33.0037V32.9995Z" fill="#262626"/>
<path d="M372.942 38.4246C372.904 38.3487 372.87 38.2728 372.832 38.1969L372.322 37.1895L371.981 36.5867C371.918 36.4771 371.854 36.3675 371.787 36.2579C370.632 34.4622 368.541 33.126 365.548 31.558C360.604 28.9698 355.301 27.2289 350.205 24.9949C351.794 26.0065 354.715 27.347 358.412 29.0457C368.221 33.5518 371.243 35.4992 372.946 38.4246H372.942Z" fill="#262626"/>
<path d="M369.882 33.5223C369.836 33.4632 369.793 33.4127 369.743 33.3494C369.713 33.3115 369.684 33.2778 369.65 33.2398C369.612 33.1935 369.574 33.1471 369.536 33.1007C369.165 32.6708 368.748 32.2029 368.415 31.8277C366.223 29.581 360.094 27.2837 350.201 24.9949C365.207 29.4925 368.112 31.6001 369.882 33.5223Z" fill="#262626"/>
<path d="M365.768 29.4293C365.401 29.1469 365.001 28.8518 364.655 28.5989C364.583 28.5483 364.512 28.5019 364.44 28.4514C362.059 26.9507 357.274 25.7873 350.201 24.9949C354.602 25.6482 362.472 27.1236 366.08 29.6822C365.975 29.5937 365.869 29.5094 365.768 29.4293Z" fill="#262626"/>
<path d="M355.782 24.9906C356.368 25.0707 356.95 25.1761 357.515 25.3068C358.522 25.4754 358.648 25.5133 359.416 25.762C359.395 25.7536 359.369 25.741 359.348 25.7367C358.965 25.585 358.442 25.408 358.05 25.2689H358.041C357.118 24.9696 356.035 24.9316 354.779 24.8811C354.838 24.8853 354.893 24.8937 354.952 24.8979C354.311 24.8389 353.658 24.8052 352.996 24.8052C351.98 24.8558 351.845 24.8642 350.201 24.9991C352.815 24.8895 353.995 24.9106 355.782 24.9949V24.9906ZM355.297 24.9316C355.415 24.9443 355.529 24.9569 355.647 24.9738C355.533 24.9569 355.415 24.9443 355.297 24.9316Z" fill="#262626"/>
</g>
<defs>
<linearGradient id="paint0_linear_2297_36" x1="47.25" y1="35.5" x2="47.25" y2="48" gradientUnits="userSpaceOnUse">
<stop stop-color="#FFBE99" stop-opacity="0"/>
<stop offset="1" stop-color="#FFBE99"/>
</linearGradient>
<linearGradient id="paint1_linear_2297_36" x1="6.25" y1="0" x2="6.25" y2="12.5" gradientUnits="userSpaceOnUse">
<stop stop-color="#FF9E66"/>
<stop offset="1" stop-color="#FF9E66" stop-opacity="0"/>
</linearGradient>
<linearGradient id="paint2_linear_2297_36" x1="6.25" y1="0" x2="6.25" y2="12.5" gradientUnits="userSpaceOnUse">
<stop stop-color="#FF9E66" stop-opacity="0"/>
<stop offset="0.766167" stop-color="#FF9E66"/>
</linearGradient>
<linearGradient id="paint3_linear_2297_36" x1="6.25" y1="0" x2="6.25" y2="6.25" gradientUnits="userSpaceOnUse">
<stop stop-color="#FFBE99" stop-opacity="0"/>
<stop offset="1" stop-color="#FFBE99"/>
</linearGradient>
<linearGradient id="paint4_linear_2297_36" x1="34.75" y1="10.5" x2="34.75" y2="23" gradientUnits="userSpaceOnUse">
<stop stop-color="#FFBE99"/>
<stop offset="0.159375" stop-color="#FFBE99" stop-opacity="0"/>
</linearGradient>
<linearGradient id="paint5_linear_2297_36" x1="39.1025" y1="5.19856" x2="33.8012" y2="5.19856" gradientUnits="userSpaceOnUse">
<stop stop-color="white"/>
<stop offset="1" stop-color="white" stop-opacity="0"/>
</linearGradient>
<linearGradient id="paint6_linear_2297_36" x1="6.25" y1="0" x2="6.25" y2="12.5" gradientUnits="userSpaceOnUse">
<stop stop-color="#FFBE99" stop-opacity="0"/>
<stop offset="1" stop-color="#FFBE99"/>
</linearGradient>
<linearGradient id="paint7_linear_2297_36" x1="325.75" y1="23" x2="325.75" y2="35.5" gradientUnits="userSpaceOnUse">
<stop stop-color="#FF9E66"/>
<stop offset="1" stop-color="#FF9E66" stop-opacity="0"/>
</linearGradient>
<linearGradient id="paint8_linear_2297_36" x1="313.25" y1="23" x2="313.25" y2="35.5" gradientUnits="userSpaceOnUse">
<stop stop-color="#FF9E66" stop-opacity="0"/>
<stop offset="0.766167" stop-color="#FF9E66"/>
</linearGradient>
<linearGradient id="paint9_linear_2297_36" x1="313.25" y1="23" x2="313.25" y2="29.25" gradientUnits="userSpaceOnUse">
<stop stop-color="#FFBE99" stop-opacity="0"/>
<stop offset="1" stop-color="#FFBE99"/>
</linearGradient>
<linearGradient id="paint10_linear_2297_36" x1="6.25" y1="0" x2="6.25" y2="12.5" gradientUnits="userSpaceOnUse">
<stop stop-color="#FFBE99"/>
<stop offset="0.159375" stop-color="#FFBE99" stop-opacity="0"/>
</linearGradient>
<linearGradient id="paint11_linear_2297_36" x1="308.897" y1="5.19856" x2="314.199" y2="5.19856" gradientUnits="userSpaceOnUse">
<stop stop-color="white"/>
<stop offset="1" stop-color="white" stop-opacity="0"/>
</linearGradient>
</defs>
</svg>
