<svg width="304" height="24" viewBox="0 0 304 24" fill="none" xmlns="http://www.w3.org/2000/svg">
<g clip-path="url(#clip0_22_479)">
<path fill-rule="evenodd" clip-rule="evenodd" d="M406.308 9.39522L388.727 10.6171C373.1 11.839 337.939 14.2827 304.731 13.0609C271.523 11.839 236.362 6.95146 203.154 3.89676C169.946 0.231115 134.785 -0.990766 101.577 0.842055C68.3691 2.67488 33.2079 8.17334 17.5807 10.6171L6.10352e-05 13.0609V32H17.5807C33.2079 32 68.3691 32 101.577 32C134.785 32 169.946 32 203.154 32C236.362 32 271.523 32 304.731 32C337.939 32 373.1 32 388.727 32H406.308V9.39522Z" fill="#F18C5C"/>
<path fill-rule="evenodd" clip-rule="evenodd" d="M406.308 9.39522L388.727 10.6171C373.1 11.839 337.939 14.2827 304.731 13.0609C271.523 11.839 236.362 6.95146 203.154 3.89676C169.946 0.231115 134.785 -0.990766 101.577 0.842055C68.3691 2.67488 33.2079 8.17334 17.5807 10.6171L6.10352e-05 13.0609V32H17.5807C33.2079 32 68.3691 32 101.577 32C134.785 32 169.946 32 203.154 32C236.362 32 271.523 32 304.731 32C337.939 32 373.1 32 388.727 32H406.308V9.39522Z" fill="white" fill-opacity="0.32"/>
<path fill-rule="evenodd" clip-rule="evenodd" d="M304 12.6763L290.326 14.2222C276.652 15.7681 249.305 18.8599 221.957 16.541C196.563 14.2222 169.215 6.49266 141.868 5.71971C114.52 4.94676 87.1723 11.1304 59.8247 10.3574C32.4771 9.58446 5.12946 1.85497 -20.2648 0.309066C-47.6124 -1.23683 -74.9601 3.40086 -88.6339 5.71971L-102.308 8.03856V32H-88.6339C-74.9601 32 -47.6124 32 -20.2648 32C5.12946 32 32.4771 32 59.8247 32C87.1723 32 114.52 32 141.868 32C169.215 32 196.563 32 221.957 32C249.305 32 276.652 32 290.326 32H304V12.6763Z" fill="#F18C5C"/>
</g>
<defs>
<clipPath id="clip0_22_479">
<rect width="304" height="24" fill="white" transform="matrix(-1 0 0 1 304 0)"/>
</clipPath>
</defs>
</svg>
