<?xml version="1.0" encoding="utf-8"?>
<svg xmlns="http://www.w3.org/2000/svg">
  <defs>

	<!-- Socials -->
	<symbol id="facebook" viewBox="0 0 41 40">
		<path d="M20.5181 0C9.49011 0 0.518066 8.97204 0.518066 20C0.518066 31.0271 9.49011 40 20.5181 40C31.5452 40 40.5181 31.0271 40.5181 20C40.5181 8.97204 31.5468 0 20.5181 0ZM25.4919 20.7041H22.238V32.3016H17.4165C17.4165 32.3016 17.4165 25.9647 17.4165 20.7041H15.1245V16.6052H17.4165V13.9539C17.4165 12.0551 18.3188 9.08805 22.2823 9.08805L25.8552 9.10175V13.0806C25.8552 13.0806 23.6841 13.0806 23.262 13.0806C22.8398 13.0806 22.2396 13.2917 22.2396 14.1972V16.606H25.9132L25.4919 20.7041Z"/>
	</symbol>

	<symbol id="instagram" viewBox="0 0 41 40">
		<path d="M20.5179 23.1605C22.2635 23.1605 23.6785 21.7455 23.6785 20C23.6785 18.2545 22.2635 16.8395 20.5179 16.8395C18.7724 16.8395 17.3574 18.2545 17.3574 20C17.3574 21.7455 18.7724 23.1605 20.5179 23.1605Z"/>
		<path d="M24.5604 12.0132H16.4762C15.4293 12.0132 14.4252 12.4291 13.685 13.1693C12.9447 13.9096 12.5288 14.9136 12.5288 15.9606V24.0421C12.5288 25.089 12.9447 26.0931 13.685 26.8333C14.4252 27.5736 15.4293 27.9895 16.4762 27.9895H24.5604C25.6073 27.9895 26.6113 27.5736 27.3516 26.8333C28.0919 26.0931 28.5078 25.089 28.5078 24.0421V15.9579C28.5071 14.9115 28.0909 13.9081 27.3507 13.1684C26.6105 12.4287 25.6068 12.0132 24.5604 12.0132ZM20.5183 25.1737C19.4949 25.1742 18.4944 24.8712 17.6432 24.3031C16.7921 23.7349 16.1285 22.9271 15.7365 21.9817C15.3446 21.0364 15.2417 19.9961 15.4411 18.9923C15.6404 17.9885 16.1329 17.0664 16.8564 16.3426C17.5798 15.6188 18.5017 15.1258 19.5053 14.9259C20.509 14.7261 21.5494 14.8284 22.4949 15.2199C23.4404 15.6114 24.2486 16.2745 24.8172 17.1254C25.3858 17.9763 25.6893 18.9767 25.6893 20C25.6879 21.3713 25.1428 22.686 24.1734 23.6559C23.204 24.6258 21.8895 25.1716 20.5183 25.1737ZM25.7209 16.1053C25.4677 16.1058 25.2201 16.0312 25.0094 15.8908C24.7987 15.7505 24.6343 15.5508 24.5372 15.317C24.4401 15.0832 24.4145 14.8258 24.4638 14.5775C24.513 14.3291 24.6349 14.101 24.8139 13.922C24.993 13.743 25.2211 13.6211 25.4694 13.5718C25.7178 13.5226 25.9751 13.5481 26.2089 13.6453C26.4427 13.7424 26.6425 13.9067 26.7828 14.1174C26.9231 14.3282 26.9978 14.5758 26.9972 14.829C26.9965 15.1673 26.8618 15.4915 26.6226 15.7307C26.3834 15.9699 26.0592 16.1046 25.7209 16.1053Z"/>
		<path d="M20.5181 0C16.5624 0 12.6957 1.17298 9.40667 3.37061C6.11769 5.56824 3.55424 8.69181 2.04048 12.3463C0.526732 16.0009 0.130665 20.0222 0.90237 23.9018C1.67407 27.7814 3.57889 31.3451 6.37594 34.1421C9.17299 36.9392 12.7366 38.844 16.6163 39.6157C20.4959 40.3874 24.5172 39.9913 28.1717 38.4776C31.8263 36.9638 34.9498 34.4004 37.1475 31.1114C39.3451 27.8224 40.5181 23.9556 40.5181 20C40.5181 14.6957 38.4109 9.60859 34.6602 5.85786C30.9095 2.10714 25.8224 0 20.5181 0ZM30.5181 24.0421C30.5167 25.6218 29.8885 27.1364 28.7715 28.2534C27.6545 29.3705 26.1399 29.9986 24.5602 30H16.476C14.8965 29.9979 13.3823 29.3695 12.2654 28.2527C11.1485 27.1358 10.5202 25.6216 10.5181 24.0421V15.9579C10.5202 14.3784 11.1485 12.8642 12.2654 11.7473C13.3823 10.6305 14.8965 10.0021 16.476 10H24.5602C26.1397 10.0021 27.6539 10.6305 28.7707 11.7473C29.8876 12.8642 30.516 14.3784 30.5181 15.9579V24.0421Z"/>
	</symbol>

	<symbol id="linkedin" viewBox="0 0 41 40">
		<path d="M35.0635 0H5.97261C4.52598 0 3.13859 0.574674 2.11567 1.5976C1.09274 2.62053 0.518066 4.00791 0.518066 5.45455L0.518066 34.5455C0.518066 35.9921 1.09274 37.3795 2.11567 38.4024C3.13859 39.4253 4.52598 40 5.97261 40H35.0635C36.5102 40 37.8975 39.4253 38.9205 38.4024C39.9434 37.3795 40.5181 35.9921 40.5181 34.5455V5.45455C40.5181 4.00791 39.9434 2.62053 38.9205 1.5976C37.8975 0.574674 36.5102 0 35.0635 0ZM14.1544 31.6545C14.1547 31.7655 14.1331 31.8754 14.0909 31.9779C14.0487 32.0805 13.9866 32.1737 13.9083 32.2522C13.8299 32.3308 13.7369 32.3931 13.6344 32.4356C13.532 32.4781 13.4222 32.5 13.3112 32.5H9.71807C9.60696 32.5003 9.49688 32.4786 9.39417 32.4363C9.29146 32.3939 9.19814 32.3316 9.11957 32.253C9.041 32.1745 8.97874 32.0812 8.93636 31.9784C8.89398 31.8757 8.87231 31.7657 8.87261 31.6545V16.5909C8.87261 16.3667 8.96169 16.1516 9.12024 15.9931C9.27879 15.8345 9.49384 15.7455 9.71807 15.7455H13.3112C13.5351 15.7461 13.7495 15.8354 13.9076 15.9939C14.0657 16.1524 14.1544 16.3671 14.1544 16.5909V31.6545ZM11.5135 14.3182C10.8393 14.3182 10.1802 14.1182 9.61953 13.7436C9.05891 13.3691 8.62196 12.8366 8.36393 12.2137C8.10591 11.5908 8.03839 10.9053 8.16993 10.244C8.30148 9.58271 8.62616 8.97527 9.10293 8.4985C9.5797 8.02173 10.1871 7.69705 10.8484 7.5655C11.5097 7.43396 12.1952 7.50148 12.8181 7.7595C13.4411 8.01753 13.9735 8.45448 14.3481 9.0151C14.7227 9.57572 14.9226 10.2348 14.9226 10.9091C14.9226 11.8132 14.5634 12.6804 13.9241 13.3197C13.2848 13.959 12.4177 14.3182 11.5135 14.3182ZM32.9362 31.7136C32.9366 31.8158 32.9166 31.917 32.8777 32.0114C32.8387 32.1059 32.7815 32.1917 32.7093 32.2639C32.637 32.3362 32.5512 32.3934 32.4568 32.4324C32.3623 32.4713 32.2611 32.4912 32.159 32.4909H28.2953C28.1932 32.4912 28.092 32.4713 27.9975 32.4324C27.9031 32.3934 27.8173 32.3362 27.7451 32.2639C27.6728 32.1917 27.6156 32.1059 27.5766 32.0114C27.5377 31.917 27.5178 31.8158 27.5181 31.7136V24.6568C27.5181 23.6023 27.8272 20.0386 24.7612 20.0386C22.3862 20.0386 21.9022 22.4773 21.8067 23.5727V31.7227C21.8067 31.9269 21.7264 32.1229 21.5831 32.2684C21.4398 32.4138 21.245 32.497 21.0408 32.5H17.309C17.207 32.5 17.106 32.4799 17.0119 32.4408C16.9177 32.4017 16.8322 32.3444 16.7602 32.2722C16.6882 32.2 16.6311 32.1143 16.5923 32.02C16.5535 31.9257 16.5337 31.8247 16.534 31.7227V16.525C16.5337 16.423 16.5535 16.322 16.5923 16.2277C16.6311 16.1334 16.6882 16.0477 16.7602 15.9755C16.8322 15.9033 16.9177 15.846 17.0119 15.8069C17.106 15.7678 17.207 15.7477 17.309 15.7477H21.0408C21.2469 15.7477 21.4446 15.8296 21.5904 15.9754C21.7362 16.1212 21.8181 16.3189 21.8181 16.525V17.8386C22.6999 16.5136 24.0067 15.4955 26.7953 15.4955C32.9726 15.4955 32.9317 21.2636 32.9317 24.4318L32.9362 31.7136Z"/>
	</symbol>

  </defs>
</svg>